<svg width="1019" height="1784" viewBox="0 0 1019 1784" fill="none" xmlns="http://www.w3.org/2000/svg">
<path d="M508.412 0C512.504 1.52295 514.544 4.40692 517.037 7.8125C517.921 8.99104 518.805 10.1694 519.689 11.3477C520.364 12.2548 520.364 12.2548 521.052 13.1802C523.204 16.0602 525.403 18.9041 527.6 21.75C528.439 22.8424 529.279 23.9349 530.119 25.0273C531.998 27.4638 533.889 29.8906 535.787 32.3125C539.528 37.1093 543.16 41.9865 546.8 46.8591C549.945 51.0623 553.128 55.2303 556.35 59.375C560.904 65.2666 565.252 71.2933 569.593 77.3428C573.591 82.8994 577.703 88.3426 581.9 93.75C589.923 104.095 597.656 114.665 605.409 125.211C608.573 129.514 611.756 133.8 614.975 138.062C618.672 142.97 622.265 147.947 625.85 152.938C629.684 158.275 633.561 163.564 637.6 168.75C642.735 175.365 647.59 182.155 652.412 189C653.935 191.16 655.458 193.321 656.982 195.481C658.01 196.94 659.038 198.4 660.065 199.861C663.66 204.966 667.334 210.003 671.084 214.996C672.412 217 672.412 217 672.412 219C673.072 219 673.732 219 674.412 219C675.817 220.822 677.134 222.712 678.412 224.625C679.225 225.828 680.039 227.029 680.853 228.23C681.275 228.855 681.697 229.479 682.131 230.123C684.158 233.094 686.252 236.016 688.35 238.938C688.767 239.52 689.184 240.102 689.614 240.702C690.46 241.884 691.307 243.066 692.155 244.247C698.458 253.035 704.725 261.846 710.953 270.687C713.668 274.539 716.398 278.38 719.15 282.207C725.192 290.61 731.02 299.155 736.847 307.708C738.266 309.786 739.692 311.857 741.123 313.926C747.397 322.995 753.528 332.155 759.632 341.34C763.846 347.673 768.113 353.96 772.471 360.195C774.513 363.146 776.497 366.13 778.475 369.125C781.065 373.039 783.745 376.853 786.537 380.625C789.536 384.705 792.187 388.863 794.736 393.234C796.753 396.562 798.92 399.778 801.1 403C804.863 408.576 808.435 414.242 811.912 420C816.144 427.004 820.574 433.84 825.146 440.625C828.333 445.355 831.381 450.169 834.412 455C834.772 455.573 835.133 456.145 835.504 456.735C844.462 470.978 853.287 485.298 861.785 499.821C864.441 504.359 867.132 508.874 869.85 513.375C873.756 519.853 877.547 526.395 881.324 532.95C884.154 537.855 887.037 542.722 889.975 547.562C894.578 555.171 898.875 562.941 903.159 570.732C904.366 572.916 905.585 575.092 906.81 577.266C912.864 588.025 918.589 598.939 924.256 609.906C926.552 614.35 928.875 618.778 931.222 623.195C935.66 631.557 939.97 639.981 944.225 648.438C944.764 649.503 945.303 650.569 945.859 651.668C948.926 657.794 951.701 663.971 954.289 670.315C955.715 673.725 957.334 676.969 959.037 680.25C961.135 684.352 963.035 688.408 964.545 692.762C965.799 695.998 967.302 699.115 968.787 702.25C973.294 711.794 977.27 721.506 981.021 731.371C982.059 734.078 983.111 736.777 984.178 739.473C989.935 754.048 989.935 754.048 991.709 760.664C992.327 762.717 993.073 764.731 993.838 766.734C995.446 770.968 996.677 775.254 997.85 779.625C998.282 781.219 998.716 782.813 999.15 784.406C999.363 785.186 999.575 785.966 999.793 786.77C1000.66 789.902 1001.61 793.011 1002.54 796.125C1004.34 802.384 1005.56 808.659 1006.69 815.062C1007.35 818.735 1008.15 822.363 1008.97 826C1016.43 860.639 1016.85 901.77 1010.82 936.633C1010.43 938.876 1010.1 941.12 1009.79 943.375C1008.39 953.103 1006.22 962.673 1004.04 972.25C1003.62 974.115 1003.62 974.115 1003.19 976.018C1001.43 983.553 999.238 990.701 996.531 997.943C995.525 1000.69 994.651 1003.44 993.85 1006.25C992.376 1011.31 990.432 1016.13 988.412 1021C987.679 1022.79 986.95 1024.58 986.225 1026.38C985.901 1027.17 985.577 1027.96 985.244 1028.77C984.473 1030.84 983.897 1032.85 983.412 1035C984.055 1035.38 984.699 1035.76 985.361 1036.14C996.028 1042.64 1012.67 1053.52 1018.41 1065C1018.99 1072.07 1018.99 1072.07 1016.75 1075.65C1014.04 1078.38 1012.37 1078.93 1008.66 1079.81C981.584 1087.4 963.144 1108.15 947.41 1130.4C940.588 1140.03 933.471 1149.47 926.17 1158.74C924.814 1160.48 923.479 1162.24 922.154 1164.01C916.736 1171.21 910.999 1177.9 904.822 1184.46C903.239 1186.19 901.716 1187.96 900.189 1189.73C895.886 1194.67 891.295 1199.31 886.662 1203.94C885.775 1204.82 884.887 1205.71 883.973 1206.62C878.042 1212.5 872.036 1217.92 865.412 1223C863.555 1224.54 861.701 1226.08 859.85 1227.62C851.127 1234.75 841.754 1240.86 832.234 1246.85C831.051 1247.6 829.87 1248.35 828.691 1249.1C817.968 1255.95 806.655 1261.35 795.13 1266.71C792.412 1268 789.74 1269.37 787.064 1270.75C783.657 1272.46 780.587 1273.72 776.787 1274.31C775.949 1274.45 775.111 1274.59 774.248 1274.74C773.339 1274.87 773.339 1274.87 772.412 1275C774.432 1277.62 776.384 1279.97 778.85 1282.19C786.426 1290.5 787.986 1299.91 787.744 1310.75C787.19 1320.88 782.726 1328.77 775.744 1335.91C772.53 1338.79 769.288 1341.1 765.412 1343C764.428 1343.49 763.445 1343.97 762.432 1344.47C757.245 1346.66 751.735 1347.49 746.225 1348.5C745.075 1348.72 743.925 1348.94 742.741 1349.16C736.594 1350.31 730.463 1351.29 724.259 1352.06C713.944 1353.37 705.629 1356.26 696.412 1361C695.617 1361.4 694.822 1361.8 694.003 1362.2C670.875 1373.78 647.976 1386.94 628.412 1404C627.895 1404.44 627.379 1404.89 626.847 1405.35C614.384 1416.13 604.852 1427.71 598.412 1443C598.412 1443.66 598.412 1444.32 598.412 1445C599.902 1445.89 601.431 1446.71 602.975 1447.5C608.897 1450.94 612.073 1455.1 615.412 1461C615.773 1461.61 616.134 1462.23 616.506 1462.86C619.969 1470.11 619.501 1480.31 617.721 1487.98C614.701 1496.14 609.497 1502.98 602.412 1508C600.426 1508.71 598.427 1509.38 596.412 1510C602.284 1525.75 611.475 1536.93 624.861 1547.04C640.717 1559.25 656.176 1574.21 659.412 1595C659.698 1598.63 659.737 1602.23 659.725 1605.88C659.741 1606.8 659.757 1607.73 659.773 1608.69C659.784 1623.7 653.084 1636.93 642.783 1647.66C642.001 1648.43 641.218 1649.21 640.412 1650C639.64 1650.77 638.868 1651.54 638.072 1652.34C629.674 1660.31 619.853 1666.09 609.412 1671C610.033 1674.4 611.33 1676.53 613.35 1679.31C619.254 1688.06 619.555 1697.52 617.982 1707.81C615.735 1716.69 610.02 1723.52 602.596 1728.71C597.425 1731.76 592.445 1734 586.412 1734C586.412 1750.5 586.412 1767 586.412 1784C535.592 1784 484.772 1784 432.412 1784C432.412 1767.5 432.412 1751 432.412 1734C429.442 1733.34 426.472 1732.68 423.412 1732C415.637 1728.59 409.61 1724.43 405.412 1717C404.929 1716.2 404.445 1715.4 403.947 1714.57C399.373 1706.02 398.758 1697 401.334 1687.66C403.767 1681.4 407.054 1676.09 411.412 1671C409.885 1670.63 409.885 1670.63 408.326 1670.25C391.208 1665.32 374.25 1648.31 365.791 1633.08C364.527 1630.42 363.44 1627.76 362.412 1625C362.095 1624.27 361.778 1623.55 361.451 1622.8C356.717 1610.37 358.076 1593.92 363.412 1582C367.538 1573.5 372.844 1566.74 379.412 1560C380.099 1559.26 380.786 1558.53 381.494 1557.77C385.814 1553.25 390.418 1549.32 395.35 1545.5C404.702 1538.25 413.002 1531.78 418.412 1521C418.751 1520.32 419.09 1519.65 419.439 1518.95C420.956 1515.68 421.412 1513.68 421.412 1510C420.236 1509.48 419.061 1508.97 417.85 1508.44C409.113 1503.95 405.114 1497.76 401.514 1488.7C398.549 1478.75 399.927 1468.78 404.631 1459.63C408.461 1453.32 413.776 1448.32 420.412 1445C418 1426.22 399.314 1410.36 385.334 1399.24C370.133 1387.59 354.056 1377.86 337.225 1368.75C335.659 1367.9 335.659 1367.9 334.061 1367.03C330.862 1365.32 327.642 1363.66 324.412 1362C323.248 1361.38 322.085 1360.77 320.886 1360.13C311.459 1355.3 302.408 1353.29 291.975 1351.81C289.016 1351.37 286.059 1350.92 283.103 1350.46C282.022 1350.29 282.022 1350.29 280.919 1350.12C265.293 1347.61 248.533 1344.24 238.412 1331C232.204 1321.03 229.942 1310.84 231.877 1299.2C234.11 1289.85 238.498 1282.63 245.412 1276C244.518 1275.65 244.518 1275.65 243.606 1275.29C213.898 1263.49 186.624 1248.66 161.412 1229C160.047 1227.96 160.047 1227.96 158.654 1226.89C147.221 1217.99 136.98 1207.71 126.816 1197.42C123.949 1194.52 121.074 1191.63 118.123 1188.82C111.736 1182.65 106.32 1176.05 100.954 1169.01C99.2889 1166.84 97.6064 1164.68 95.9199 1162.52C87.8775 1152.24 79.9429 1141.89 72.287 1131.31C69.3139 1127.21 66.2679 1123.18 63.1347 1119.2C61.944 1117.68 60.765 1116.15 59.5956 1114.62C56.4162 1110.46 53.2568 1106.58 49.412 1103C48.7275 1102.33 48.0431 1101.67 47.3378 1100.98C36.8187 1091.04 25.0412 1084.3 11.0995 1080.56C6.55468 1079.27 4.38118 1077.64 1.41204 1074C1.08204 1073.67 0.75204 1073.34 0.41204 1073C-0.172776 1068.83 -0.456561 1066.37 1.83392 1062.76C4.74781 1059.36 7.26755 1056.82 11.412 1055C11.412 1054.34 11.412 1053.68 11.412 1053C28.2342 1037.3 28.2342 1037.3 37.412 1036C37.0111 1035.22 36.6102 1034.44 36.1972 1033.63C-6.40271 946.887 -1.89194 846.061 28.4838 756.718C33.7318 741.35 33.7318 741.35 35.9003 737.047C37.4733 733.876 38.6406 730.722 39.787 727.375C42.7126 719.054 45.8685 710.909 49.912 703.062C51.7167 699.542 53.1844 696.03 54.537 692.312C58.052 682.943 62.5705 674.034 66.9404 665.041C68.83 661.136 70.6903 657.219 72.5507 653.301C87.5291 621.799 87.5291 621.799 96.2094 606.694C98.7772 602.204 101.135 597.643 103.412 593C107.095 585.504 111.128 578.244 115.275 570.996C116.404 569.014 117.52 567.026 118.631 565.035C122.751 557.653 126.954 550.328 131.264 543.054C133.863 538.659 136.424 534.245 138.959 529.812C145.038 519.187 151.16 508.635 157.78 498.337C162.185 491.451 166.334 484.421 170.475 477.375C176.12 467.777 181.955 458.346 188.079 449.045C190.527 445.288 192.902 441.485 195.287 437.688C203.482 424.666 211.861 411.765 220.432 398.988C221.863 396.828 223.277 394.662 224.674 392.48C231.434 381.925 238.435 371.542 245.489 361.181C246.306 359.982 247.123 358.782 247.939 357.582C248.334 357.002 248.729 356.423 249.135 355.825C252.131 351.423 255.095 347.001 258.037 342.562C264.777 332.407 271.794 322.45 278.834 312.502C282.188 307.755 285.503 302.983 288.787 298.188C297.373 285.654 306.084 273.208 314.942 260.866C317.578 257.188 320.162 253.478 322.725 249.75C327.939 242.189 333.334 234.761 338.727 227.326C340.369 225.059 342.007 222.788 343.643 220.516C349.836 211.913 356.086 203.355 362.388 194.831C365.815 190.189 369.201 185.521 372.537 180.812C376.573 175.117 380.746 169.532 384.952 163.96C388.171 159.685 391.32 155.368 394.412 151C397.937 146.021 401.549 141.119 405.225 136.25C409.464 130.634 413.621 124.966 417.725 119.25C427.152 106.141 436.764 93.1834 446.933 80.6384C451.434 75.0503 455.672 69.2827 459.905 63.4905C464.485 57.2323 469.145 51.0402 473.85 44.875C474.825 43.5967 474.825 43.5967 475.819 42.2925C478.864 38.3081 481.925 34.3365 485.01 30.3828C487.678 26.9596 490.298 23.5045 492.894 20.0269C495.646 16.3529 498.437 12.7089 501.225 9.0625C501.809 8.29615 502.394 7.5298 502.996 6.74023C503.552 6.01256 504.108 5.28488 504.682 4.53516C505.183 3.8791 505.684 3.22305 506.2 2.54712C507.412 1 507.412 1 508.412 0Z" fill="#AA7B22"/>
<path d="M508.412 139C509.072 139 509.732 139 510.412 139C511.658 140.43 511.658 140.43 513.064 142.445C513.588 143.186 514.112 143.926 514.651 144.689C515.212 145.493 515.772 146.297 516.35 147.125C520.498 152.979 524.692 158.762 529.162 164.375C539.551 177.451 549.325 191 559.216 204.454C560.989 206.866 562.763 209.277 564.537 211.688C565.4 212.86 565.4 212.86 566.28 214.056C570.648 219.984 575.058 225.882 579.506 231.751C582.277 235.421 584.868 239.167 587.412 243C589.047 245.259 590.691 247.509 592.35 249.75C598.279 257.8 604.149 265.891 609.982 274.01C610.875 275.253 611.77 276.495 612.667 277.736C613.691 279.154 614.708 280.577 615.725 282C616.257 282.743 616.789 283.485 617.338 284.25C618.412 286 618.412 286 618.412 288C619.072 288 619.732 288 620.412 288C621.65 289.657 622.801 291.38 623.912 293.125C626.902 297.722 629.957 302.238 633.162 306.688C634.014 307.872 634.865 309.057 635.717 310.242C636.374 311.156 636.374 311.156 637.044 312.089C641.02 317.643 644.94 323.239 648.875 328.822C650.4 330.982 651.927 333.14 653.455 335.297C662.971 348.734 672.322 362.271 681.412 376C685.684 382.45 689.99 388.865 694.443 395.191C701.837 405.739 709.055 416.402 716.174 427.137C717.426 429.021 718.684 430.902 719.943 432.781C725.15 440.555 730.266 448.381 735.303 456.266C737.167 459.181 739.04 462.09 740.912 465C741.665 466.171 742.417 467.341 743.17 468.512C743.541 469.09 743.913 469.668 744.296 470.263C745.395 471.973 746.493 473.684 747.592 475.395C748.324 476.534 749.055 477.673 749.787 478.812C750.155 479.385 750.522 479.958 750.901 480.548C752.936 483.715 754.98 486.875 757.037 490.027C762.616 498.586 768.04 507.22 773.342 515.953C776.266 520.77 779.22 525.568 782.177 530.364C784.225 533.689 786.27 537.016 788.314 540.344C791.022 544.749 793.745 549.143 796.479 553.531C797.748 555.583 799.018 557.635 800.287 559.688C800.876 560.625 801.465 561.562 802.072 562.528C805.013 567.304 807.224 571.503 808.412 577C809.072 577 809.732 577 810.412 577C810.801 577.741 811.191 578.482 811.592 579.246C814.951 585.569 818.435 591.787 822.1 597.938C834.638 619.058 845.992 640.933 856.869 662.949C860.036 669.347 863.352 675.643 866.799 681.895C868.169 684.531 869.357 687.179 870.503 689.917C872.572 694.659 874.904 699.284 877.162 703.938C881.798 713.54 886.247 723.184 890.412 733C890.919 734.169 891.425 735.338 891.947 736.543C893.3 739.736 894.562 742.944 895.787 746.188C897.39 750.384 899.04 754.549 900.787 758.688C911.123 783.403 920.225 808.664 925.412 835C925.622 836.052 925.833 837.104 926.049 838.188C929.382 855.769 929.801 873.219 929.85 891.062C929.856 892.142 929.862 893.221 929.869 894.333C929.936 912.746 928.4 930.613 923.85 948.5C923.641 949.365 923.433 950.23 923.219 951.121C922.209 955.229 921.072 959.099 919.412 963C918.945 964.835 918.48 966.671 918.033 968.512C915.908 977.027 913.488 985.252 909.975 993.301C908.623 996.435 907.389 999.608 906.162 1002.79C905.761 1003.83 905.361 1004.87 904.948 1005.94C904.14 1008.04 903.335 1010.15 902.534 1012.26C902.16 1013.23 901.786 1014.2 901.4 1015.2C901.066 1016.07 900.731 1016.95 900.386 1017.85C899.412 1020 899.412 1020 897.412 1022C895.603 1022.57 895.603 1022.57 893.404 1023.04C892.184 1023.32 892.184 1023.32 890.938 1023.6C889.626 1023.89 889.626 1023.89 888.287 1024.19C869.329 1028.7 846.608 1038.27 833.928 1053.82C832.412 1055 832.412 1055 830.213 1054.93C826.469 1053.69 823.087 1051.96 819.6 1050.12C797.958 1038.82 771.395 1037.25 748.002 1044.39C735.937 1048.46 725.355 1054.04 715.412 1062C711.654 1065 711.654 1065 709.412 1065C709.412 1065.66 709.412 1066.32 709.412 1067C707.768 1068.62 707.768 1068.62 705.6 1070.44C702.587 1072.97 702.587 1072.97 699.775 1075.72C698.412 1077 698.412 1077 696.412 1077C696.216 1076.02 696.02 1075.04 695.818 1074.03C692.613 1059.14 686.363 1047.53 676.412 1036C667.369 1025.07 659.102 1013.49 652.225 1001.06C650.753 997.945 650.753 997.945 648.412 997C642.706 996.497 638.745 997.809 633.787 1000.44C633.101 1000.79 632.414 1001.14 631.707 1001.51C624.875 1005.11 618.616 1009.41 612.412 1014C611.752 1013.67 611.092 1013.34 610.412 1013C610.459 1011.94 610.505 1010.89 610.553 1009.8C611.039 993.512 609.051 977.561 601.412 963C600.845 961.713 600.287 960.423 599.736 959.129C593.617 944.969 584.866 933.385 574.381 922.121C572.532 920.129 570.778 918.086 569.037 916C566.569 912.916 566.569 912.916 563.412 911C563.412 910.34 563.412 909.68 563.412 909C562.752 909 562.092 909 561.412 909C560.107 907.637 560.107 907.637 558.537 905.688C555.345 901.925 551.927 898.568 548.287 895.25C547.533 894.561 547.533 894.561 546.764 893.858C543.734 891.119 540.608 888.541 537.412 886C534.6 883.375 534.6 883.375 532.412 881C532.412 880.34 532.412 879.68 532.412 879C531.422 878.67 530.432 878.34 529.412 878C527.799 876.328 527.799 876.328 526.1 874.25C523.87 871.603 521.689 869.273 518.975 867.125C518.129 866.424 517.283 865.723 516.412 865C516.412 864.34 516.412 863.68 516.412 863C512.613 861.734 509.332 861.168 505.412 862C499.376 865.683 494.838 871.747 490.295 877.059C489.674 877.699 489.052 878.34 488.412 879C487.752 879 487.092 879 486.412 879C486.158 879.585 485.903 880.17 485.641 880.772C484.28 883.239 482.813 884.74 480.744 886.645C480.015 887.322 479.286 887.999 478.535 888.697C477.391 889.744 477.391 889.744 476.225 890.812C474.73 892.193 473.237 893.574 471.744 894.957C470.652 895.967 470.652 895.967 469.538 896.998C466.955 899.43 464.455 901.933 461.975 904.47C460.355 906.055 458.664 907.5 456.912 908.938C452.01 913.057 447.999 917.942 444.1 923C443.543 923.66 442.986 924.32 442.412 925C441.752 925 441.092 925 440.412 925C440.135 925.59 439.858 926.181 439.572 926.789C438.479 928.872 437.308 930.538 435.85 932.375C419.575 953.837 409.884 975.897 408.85 1003C408.806 1004.06 408.763 1005.12 408.719 1006.21C408.614 1008.81 408.511 1011.4 408.412 1014C405.787 1012.73 403.299 1011.36 400.838 1009.79C400.175 1009.37 399.512 1008.95 398.829 1008.52C398.134 1008.08 397.44 1007.64 396.725 1007.19C395.281 1006.29 393.837 1005.39 392.393 1004.49C390.149 1003.09 387.924 1001.68 385.713 1000.23C381.017 997.305 377.204 996.425 371.674 996.336C366.691 997.799 364.523 1003.38 362.164 1007.67C361.792 1008.36 361.42 1009.04 361.037 1009.75C353.517 1023.33 353.517 1023.33 350.412 1027C349.752 1027 349.092 1027 348.412 1027C348.041 1027.8 348.041 1027.8 347.662 1028.62C346.106 1031.58 344.378 1034.3 342.412 1037C341.752 1037 341.092 1037 340.412 1037C340.162 1037.53 339.912 1038.06 339.654 1038.61C338.103 1041.59 336.326 1044.4 334.537 1047.25C328.708 1056.65 323.839 1065.87 322.412 1077C319.244 1075.62 317.347 1074.05 315.037 1071.5C309.475 1065.79 303.005 1061.42 296.412 1057C295.091 1056.11 295.091 1056.11 293.744 1055.21C287.334 1051.14 280.528 1048.57 273.412 1046C272.577 1045.66 271.741 1045.31 270.881 1044.96C249.268 1036.55 222.704 1039.51 201.807 1048.43C198.104 1050.14 194.643 1052.06 191.244 1054.31C189.412 1055 189.412 1055 187.58 1054.45C184.542 1052.42 181.739 1050.12 178.912 1047.81C166.091 1037.62 150.852 1029.21 134.627 1025.95C123.109 1023.59 123.109 1023.59 119.826 1018.73C117.958 1015.37 116.552 1011.87 115.242 1008.26C114.393 1005.95 113.46 1003.69 112.494 1001.42C111.009 997.921 109.577 994.407 108.176 990.876C107.453 989.102 106.675 987.351 105.893 985.602C99.8382 970.873 96.4947 954.581 93.4121 939C93.1136 937.529 93.1136 937.529 92.8091 936.027C87.0017 906.234 86.6319 872.825 92.4121 843C92.5731 842.088 92.734 841.176 92.8999 840.236C97.094 816.498 104.152 793.346 113.523 771.154C114.914 767.783 116.161 764.362 117.412 760.938C120.464 752.678 123.884 744.585 127.35 736.492C128.412 734 129.458 731.503 130.502 729.004C134.627 719.176 138.996 709.489 143.6 699.875C144.087 698.856 144.573 697.838 145.075 696.789C147.937 690.869 150.957 685.068 154.157 679.324C155.79 676.3 157.079 673.166 158.412 670C170.295 645.154 183.76 620.908 197.412 597C198.355 595.344 199.298 593.688 200.24 592.031C203.288 586.682 206.348 581.34 209.412 576C209.9 575.149 210.389 574.297 210.892 573.42C212.313 570.945 213.737 568.472 215.162 566C215.573 565.284 215.984 564.568 216.408 563.831C220.276 557.138 224.35 550.576 228.412 544C229.676 541.939 230.939 539.878 232.201 537.816C239.332 526.185 246.516 514.594 253.895 503.117C256.871 498.479 259.728 493.814 262.412 489C263.072 489 263.732 489 264.412 489C264.517 488.438 264.621 487.876 264.729 487.297C265.542 484.565 266.779 482.63 268.35 480.25C270.935 476.283 273.48 472.299 275.972 468.273C280.147 461.531 284.44 454.885 288.866 448.305C291.333 444.633 293.743 440.933 296.1 437.188C298.779 432.944 301.604 428.834 304.502 424.738C306.644 421.668 308.72 418.558 310.787 415.438C316.173 407.316 321.663 399.267 327.152 391.214C331.128 385.374 335.079 379.519 338.975 373.625C342.343 368.533 345.867 363.578 349.49 358.664C351.497 355.883 353.399 353.05 355.287 350.188C358.964 344.622 362.807 339.196 366.701 333.781C369.674 329.645 372.605 325.479 375.537 321.312C379.407 315.819 383.319 310.361 387.287 304.938C390.028 301.148 392.72 297.325 395.412 293.5C401.106 285.417 406.892 277.409 412.768 269.457C420.755 258.663 420.755 258.663 428.518 247.707C435.611 237.572 442.923 227.59 450.373 217.715C454.596 212.092 458.72 206.396 462.783 200.656C467.714 193.697 472.767 186.865 477.994 180.125C484.349 171.912 490.499 163.544 496.662 155.188C497.548 153.986 497.548 153.986 498.452 152.761C499.306 151.601 499.306 151.601 500.178 150.418C500.726 149.675 501.275 148.931 501.84 148.166C503.333 146.109 504.771 144.021 506.209 141.926C506.936 140.96 507.663 139.995 508.412 139Z" fill="#DFAF4A"/>
<path d="M508.412 139C509.072 139 509.732 139 510.412 139C510.082 295.75 509.752 452.5 509.412 614C477.639 614 445.949 613.968 414.198 613.192C411.341 613.123 408.483 613.056 405.625 612.99C379.384 612.38 353.162 611.623 326.949 610.237C312.692 609.486 298.44 608.798 284.162 608.688C282.219 608.644 282.219 608.644 280.236 608.6C272.333 608.547 266.491 609.524 259.412 613C257.75 613.678 256.084 614.347 254.412 615C254.412 615.66 254.412 616.32 254.412 617C253.546 617.619 252.68 618.238 251.787 618.875C245.176 624.123 241.078 634.726 240.041 642.938C239.763 655.763 243.342 665.808 252.229 675.109C254.235 676.847 255.983 677.965 258.412 679C258.412 679.66 258.412 680.32 258.412 681C257.298 681.206 256.185 681.412 255.037 681.625C245.612 684.011 237.372 690.165 231.943 698.164C226.245 707.805 224.44 718.843 227.1 729.844C229.011 735.004 231.741 739.179 235.24 743.406C236.412 745 236.412 745 236.412 747C236.973 747.268 237.534 747.536 238.111 747.812C240.576 749.084 242.879 750.522 245.225 752C249.272 754.458 252.799 755.997 257.412 757C257.082 757.66 256.752 758.32 256.412 759C255.752 759 255.092 759 254.412 759C254.412 759.66 254.412 760.32 254.412 761C253.663 761.592 252.914 762.183 252.143 762.793C249.287 765.101 247.672 767.218 245.725 770.312C245.143 771.216 244.562 772.12 243.963 773.051C239.021 782.449 239.148 793.679 241.475 803.875C244.24 812.585 250.961 819.868 258.412 825C265.351 828.443 271.716 830.066 279.429 830.449C280.133 830.485 280.836 830.521 281.561 830.558C283.903 830.677 286.245 830.79 288.588 830.902C290.245 830.985 291.903 831.068 293.56 831.151C298.948 831.419 304.336 831.679 309.725 831.938C311.596 832.028 313.468 832.118 315.339 832.208C325.569 832.7 335.799 833.183 346.029 833.657C351.02 833.888 356.011 834.124 361.001 834.365C410.427 836.733 459.941 836.646 509.412 837C509.412 844.59 509.412 852.18 509.412 860C507.102 861.32 504.792 862.64 502.412 864C500.453 865.568 500.453 865.568 498.912 867.25C498.341 867.844 497.77 868.439 497.182 869.051C494.681 871.806 492.268 874.632 489.893 877.496C489.404 877.992 488.915 878.489 488.412 879C487.752 879 487.092 879 486.412 879C486.158 879.585 485.903 880.17 485.641 880.772C484.28 883.239 482.813 884.74 480.744 886.645C480.015 887.322 479.286 887.999 478.535 888.697C477.391 889.744 477.391 889.744 476.225 890.812C474.73 892.193 473.237 893.574 471.744 894.957C470.652 895.967 470.652 895.967 469.538 896.998C466.955 899.43 464.455 901.933 461.975 904.47C460.355 906.055 458.664 907.5 456.912 908.938C452.01 913.057 447.999 917.942 444.1 923C443.543 923.66 442.986 924.32 442.412 925C441.752 925 441.092 925 440.412 925C440.135 925.59 439.858 926.181 439.572 926.789C438.479 928.872 437.308 930.538 435.85 932.375C419.575 953.837 409.884 975.897 408.85 1003C408.806 1004.06 408.763 1005.12 408.719 1006.21C408.614 1008.81 408.511 1011.4 408.412 1014C405.787 1012.73 403.299 1011.36 400.838 1009.79C400.175 1009.37 399.512 1008.95 398.829 1008.52C398.134 1008.08 397.44 1007.64 396.725 1007.19C395.281 1006.29 393.837 1005.39 392.393 1004.49C390.149 1003.09 387.924 1001.68 385.713 1000.23C381.017 997.305 377.204 996.425 371.674 996.336C366.691 997.799 364.523 1003.38 362.164 1007.67C361.792 1008.36 361.42 1009.04 361.037 1009.75C353.517 1023.33 353.517 1023.33 350.412 1027C349.752 1027 349.092 1027 348.412 1027C348.041 1027.8 348.041 1027.8 347.662 1028.62C346.106 1031.58 344.378 1034.3 342.412 1037C341.752 1037 341.092 1037 340.412 1037C340.162 1037.53 339.912 1038.06 339.654 1038.61C338.103 1041.59 336.326 1044.4 334.537 1047.25C328.708 1056.65 323.839 1065.87 322.412 1077C319.244 1075.62 317.347 1074.05 315.037 1071.5C309.475 1065.79 303.005 1061.42 296.412 1057C295.091 1056.11 295.091 1056.11 293.744 1055.21C287.334 1051.14 280.528 1048.57 273.412 1046C272.577 1045.66 271.741 1045.31 270.881 1044.96C249.268 1036.55 222.704 1039.51 201.807 1048.43C198.104 1050.14 194.643 1052.06 191.244 1054.31C189.412 1055 189.412 1055 187.58 1054.45C184.542 1052.42 181.739 1050.12 178.912 1047.81C166.091 1037.62 150.852 1029.21 134.627 1025.95C123.109 1023.59 123.109 1023.59 119.826 1018.73C117.958 1015.37 116.552 1011.87 115.242 1008.26C114.393 1005.95 113.46 1003.69 112.494 1001.42C111.009 997.921 109.577 994.407 108.176 990.876C107.453 989.102 106.675 987.351 105.893 985.602C99.8382 970.873 96.4947 954.581 93.4121 939C93.1136 937.529 93.1136 937.529 92.8091 936.027C87.0017 906.234 86.6319 872.825 92.4121 843C92.5731 842.088 92.734 841.176 92.8999 840.236C97.094 816.498 104.152 793.346 113.523 771.154C114.914 767.783 116.161 764.362 117.412 760.938C120.464 752.678 123.884 744.585 127.35 736.492C128.412 734 129.458 731.503 130.502 729.004C134.627 719.176 138.996 709.489 143.6 699.875C144.087 698.856 144.573 697.838 145.075 696.789C147.937 690.869 150.957 685.068 154.157 679.324C155.79 676.3 157.079 673.166 158.412 670C170.295 645.154 183.76 620.908 197.412 597C198.355 595.344 199.298 593.688 200.24 592.031C203.288 586.682 206.348 581.34 209.412 576C209.9 575.149 210.389 574.297 210.892 573.42C212.313 570.945 213.737 568.472 215.162 566C215.573 565.284 215.984 564.568 216.408 563.831C220.276 557.138 224.35 550.576 228.412 544C229.676 541.939 230.939 539.878 232.201 537.816C239.332 526.185 246.516 514.594 253.895 503.117C256.871 498.479 259.728 493.814 262.412 489C263.072 489 263.732 489 264.412 489C264.517 488.438 264.621 487.876 264.729 487.297C265.542 484.565 266.779 482.63 268.35 480.25C270.935 476.283 273.48 472.299 275.972 468.273C280.147 461.531 284.44 454.885 288.866 448.305C291.333 444.633 293.743 440.933 296.1 437.188C298.779 432.944 301.604 428.834 304.502 424.738C306.644 421.668 308.72 418.558 310.787 415.438C316.173 407.316 321.663 399.267 327.152 391.214C331.128 385.374 335.079 379.519 338.975 373.625C342.343 368.533 345.867 363.578 349.49 358.664C351.497 355.883 353.399 353.05 355.287 350.188C358.964 344.622 362.807 339.196 366.701 333.781C369.674 329.645 372.605 325.479 375.537 321.312C379.407 315.819 383.319 310.361 387.287 304.938C390.028 301.148 392.72 297.325 395.412 293.5C401.106 285.417 406.892 277.409 412.768 269.457C420.755 258.663 420.755 258.663 428.518 247.707C435.611 237.572 442.923 227.59 450.373 217.715C454.596 212.092 458.72 206.396 462.783 200.656C467.714 193.697 472.767 186.865 477.994 180.125C484.349 171.912 490.499 163.544 496.662 155.188C497.548 153.986 497.548 153.986 498.452 152.761C499.306 151.601 499.306 151.601 500.178 150.418C500.726 149.675 501.275 148.931 501.84 148.166C503.333 146.109 504.771 144.021 506.209 141.926C506.936 140.96 507.663 139.995 508.412 139Z" fill="#F1D773"/>
<path d="M282.787 607.813C283.472 607.812 284.157 607.812 284.863 607.812C295.655 607.826 306.39 608.238 317.162 608.875C334.428 609.891 351.701 610.49 368.988 611C371.025 611.06 373.063 611.122 375.1 611.184C385.203 611.488 395.307 611.754 405.412 612C406.301 612.022 407.191 612.044 408.107 612.067C442.043 612.904 475.965 613.16 509.911 613.13C516.489 613.125 523.066 613.128 529.643 613.134C573.269 613.166 616.808 612.417 660.395 610.599C663.655 610.464 666.915 610.334 670.175 610.204C673.393 610.075 676.61 609.944 679.827 609.813C681.322 609.752 682.817 609.691 684.312 609.631C691.675 609.333 699.028 608.977 706.38 608.468C711.664 608.102 716.92 607.831 722.217 607.797C722.951 607.791 723.685 607.786 724.442 607.78C725.962 607.77 727.482 607.764 729.003 607.76C731.306 607.75 733.609 607.719 735.912 607.688C743.593 607.634 750.246 607.899 757.412 611C757.412 611.66 757.412 612.32 757.412 613C758.278 613.162 758.278 613.162 759.162 613.328C765.74 615.293 771.239 621.114 774.502 626.949C779.554 636.677 779.972 648.137 777.553 658.781C776.372 662.307 775.074 665.675 773.412 669C772.752 669 772.092 669 771.412 669C771.206 669.536 770.999 670.073 770.787 670.625C768.879 673.92 766.364 676.594 763.412 679C762.752 679 762.092 679 761.412 679C761.412 679.66 761.412 680.32 761.412 681C762.299 680.959 763.186 680.918 764.099 680.875C767.385 680.999 769.466 681.614 772.412 683C772.412 683.66 772.412 684.32 772.412 685C773.216 685.093 773.216 685.093 774.037 685.188C780.452 687.382 784.971 693.407 788.412 699C793.769 710.309 795.765 722.575 791.514 734.695C786.826 744.503 778.376 752.122 768.49 756.371C766.412 757 766.412 757 762.412 757C763.113 757.681 763.814 758.361 764.537 759.063C774.44 769.077 779.687 778.387 779.731 792.644C779.569 801.916 776.985 811.202 770.412 818C761.473 826.397 752.031 830.945 739.721 831.246C738.609 831.279 737.497 831.312 736.351 831.346C734.075 831.405 731.799 831.463 729.523 831.518C723.733 831.692 718.022 832.017 712.272 832.7C695.512 834.652 678.611 834.653 661.758 835.006C654.767 835.154 647.776 835.315 640.785 835.477C639.087 835.516 637.388 835.554 635.69 835.593C625.283 835.829 614.888 836.151 604.49 836.651C593.817 837.15 583.137 837.324 572.454 837.503C568.942 837.562 565.431 837.627 561.92 837.693C544.416 838.009 526.917 838.073 509.412 838C508.581 837.997 507.75 837.993 506.894 837.99C450.199 837.749 393.581 836.955 336.945 834.3C331.132 834.029 325.318 833.783 319.503 833.543C313.361 833.289 307.219 833.016 301.078 832.734C298.596 832.622 296.113 832.514 293.63 832.413C262.081 831.098 262.081 831.098 250.474 818.977C248.731 817.022 247.048 815.046 245.412 813C244.886 812.359 244.36 811.719 243.818 811.059C238.397 803.123 238.556 792.183 239.412 783C241.108 774.667 245.418 767.981 251.412 762C252.402 761.67 253.392 761.34 254.412 761C254.412 760.34 254.412 759.68 254.412 759C255.072 758.67 255.732 758.34 256.412 758C255.806 757.793 255.2 757.585 254.576 757.371C241.326 752.499 233.004 745.045 226.974 732.25C223.579 722.942 224.362 711.984 228.412 703C233.892 692.936 241.608 685.196 252.412 681C255.752 680.84 255.752 680.84 258.412 681C258.412 680.34 258.412 679.68 258.412 679C257.391 678.722 257.391 678.722 256.349 678.438C249.333 675.004 245.279 669.075 242.412 662C242.113 661.323 241.814 660.647 241.506 659.949C237.477 649.746 238.678 639.877 242.916 629.961C245.753 624.347 248.506 619.578 254.412 617C254.412 616.34 254.412 615.68 254.412 615C256.159 614.015 257.91 613.037 259.662 612.063C260.636 611.517 261.611 610.972 262.615 610.41C269.068 607.157 275.696 607.808 282.787 607.813Z" fill="#A97B21"/>
<path d="M508.412 34C512.171 35.7127 513.769 37.4946 516.1 40.9375C516.702 41.8128 517.304 42.688 517.924 43.5898C519.412 46 519.412 46 520.412 49C521.072 49 521.732 49 522.412 49C523.77 50.6779 525.049 52.4194 526.287 54.1875C528.348 57.1147 530.392 59.9753 532.67 62.7383C534.412 65 534.412 65 534.412 67C535.072 67 535.732 67 536.412 67C537.711 68.6989 538.922 70.4648 540.1 72.25C544.115 78.2171 548.337 84.0045 552.662 89.75C553.306 90.6053 553.95 91.4606 554.613 92.3418C559.282 98.5272 563.983 104.687 568.699 110.836C573.877 117.592 578.983 124.401 584.079 131.219C585.977 133.754 587.883 136.283 589.787 138.812C598.88 150.937 607.82 163.177 616.776 175.402C618.541 177.813 620.31 180.222 622.08 182.629C628.235 191.002 634.334 199.415 640.412 207.844C642.799 211.153 645.196 214.454 647.6 217.75C650.881 222.255 654.124 226.788 657.357 231.328C659.717 234.639 662.09 237.939 664.483 241.227C670.757 249.855 676.888 258.561 682.888 267.383C686.947 273.345 691.136 279.192 695.412 285C702.111 294.151 708.722 303.331 714.955 312.808C717.352 316.443 719.826 319.995 722.412 323.5C725.411 327.568 728.255 331.72 731.037 335.938C734.976 341.908 739.041 347.779 743.162 353.625C753.868 368.842 764.073 384.389 774.176 400.011C777.05 404.442 779.972 408.814 783.041 413.113C785.713 416.892 788.001 420.744 790.192 424.816C792.275 428.544 794.696 432.037 797.1 435.562C802.736 443.924 808.114 452.422 813.412 461C815.013 463.585 816.617 466.169 818.225 468.75C818.625 469.393 819.024 470.035 819.436 470.697C823.536 477.254 827.771 483.723 832.035 490.175C834.778 494.356 837.231 498.491 839.412 503C840.598 504.993 841.808 506.972 843.037 508.938C843.754 510.092 844.47 511.247 845.186 512.402C845.554 512.996 845.922 513.591 846.302 514.203C852.355 524.001 858.135 533.95 863.829 543.961C866.713 549.032 869.621 554.086 872.562 559.124C877.602 567.761 882.445 576.492 887.204 585.287C889.778 590.036 892.394 594.738 895.162 599.375C898.153 604.422 900.772 609.609 903.362 614.869C905.628 619.461 907.981 623.994 910.412 628.5C919.545 645.485 927.689 662.959 935.819 680.44C937.326 683.681 938.844 686.916 940.377 690.145C946.071 702.146 951.609 714.211 956.451 726.586C957.559 729.369 958.737 732.119 959.912 734.875C961.972 739.788 963.725 744.74 965.322 749.82C966.202 752.387 967.165 754.848 968.201 757.352C971.093 764.521 973.406 771.88 975.725 779.25C975.965 780.014 976.206 780.779 976.453 781.566C986.038 812.206 993.618 844.293 993.545 876.559C993.546 877.51 993.547 878.462 993.548 879.442C993.549 881.431 993.547 883.42 993.543 885.409C993.537 888.454 993.543 891.5 993.549 894.545C993.548 896.487 993.547 898.429 993.545 900.371C993.547 901.278 993.549 902.186 993.551 903.12C993.548 903.966 993.545 904.811 993.542 905.681C993.54 906.791 993.54 906.791 993.539 907.923C993.408 910.062 992.975 911.936 992.412 914C992.263 915.342 992.144 916.688 992.053 918.035C990.355 940.204 986.174 961.822 979.412 983C979.093 984.003 978.774 985.005 978.445 986.038C973.931 1000.12 969.238 1013.85 962.412 1027C955.482 1025.51 955.482 1025.51 948.412 1024C948.412 1023.34 948.412 1022.68 948.412 1022C941.586 1021.01 934.801 1020.69 927.912 1020.44C926.249 1020.37 926.249 1020.37 924.553 1020.31C921.839 1020.2 919.126 1020.1 916.412 1020C916.719 1019.24 917.026 1018.47 917.343 1017.68C918.92 1013.73 920.403 1009.73 921.901 1005.74C923.073 1002.72 924.443 999.818 925.834 996.891C928.661 990.717 930.547 984.411 932.35 977.875C932.86 976.049 932.86 976.049 933.38 974.187C935.589 966.191 937.723 958.176 939.725 950.125C940.07 948.777 940.07 948.777 940.422 947.402C944.652 929.822 945.911 912.161 945.803 894.132C945.787 890.936 945.803 887.741 945.822 884.545C945.835 871.911 944.915 859.748 942.798 847.292C942.281 844.222 941.818 841.143 941.356 838.064C939.064 823.236 935.557 808.652 930.6 794.492C929.033 789.884 927.757 785.213 926.502 780.512C925.348 776.793 923.95 773.246 922.48 769.643C921.431 767.047 920.431 764.438 919.447 761.816C914.871 749.575 914.871 749.575 909.627 737.609C908.122 734.377 906.737 731.097 905.35 727.812C903.462 723.373 901.474 719.047 899.264 714.762C898.121 712.397 897.279 709.934 896.389 707.465C895.049 704.082 893.516 700.794 891.975 697.5C891.542 696.575 891.542 696.575 891.1 695.631C888.286 689.66 885.322 683.766 882.307 677.895C881.613 676.534 880.919 675.173 880.225 673.812C879.87 673.127 879.514 672.442 879.149 671.736C877.338 668.168 875.935 665.021 875.412 661C874.752 661 874.092 661 873.412 661C872.904 659.889 872.396 658.778 871.873 657.633C868.498 650.316 865.104 643.187 860.822 636.348C859.31 633.83 858.013 631.264 856.725 628.625C853.19 621.426 849.293 614.44 845.408 607.426C843.382 603.766 841.375 600.097 839.385 596.418C834.216 586.869 828.994 577.384 823.357 568.101C820.412 563.206 820.412 563.206 820.412 561C819.752 561 819.092 561 818.412 561C818.149 560.441 817.886 559.883 817.615 559.307C814.18 552.212 810.215 545.491 806.101 538.777C804.976 536.939 803.857 535.098 802.738 533.256C799.169 527.393 795.55 521.581 791.668 515.918C789.833 513.116 788.279 510.175 786.681 507.233C785.414 505.004 784.047 502.895 782.608 500.773C779.583 496.275 776.67 491.715 773.787 487.125C772.733 485.451 771.678 483.776 770.623 482.102C770.09 481.255 769.558 480.408 769.009 479.536C766.975 476.305 764.936 473.077 762.896 469.849C761.91 468.288 760.925 466.727 759.94 465.165C757.304 460.985 754.656 456.814 751.99 452.652C751.155 451.343 751.155 451.343 750.303 450.008C749.228 448.324 748.15 446.643 747.068 444.965C746.589 444.212 746.109 443.459 745.615 442.684C745.189 442.019 744.763 441.354 744.323 440.67C743.412 439 743.412 439 743.412 437C742.752 437 742.092 437 741.412 437C740.34 435.336 739.357 433.615 738.412 431.875C735.763 427.204 732.95 422.781 729.787 418.438C719.084 403.712 709.019 388.529 698.994 373.336C693.533 365.077 687.907 356.948 682.174 348.875C681.488 347.906 681.488 347.906 680.789 346.918C679.856 345.618 678.908 344.329 677.946 343.051C674.412 338.311 674.412 338.311 674.412 335C673.752 335 673.092 335 672.412 335C671.151 333.383 671.151 333.383 669.725 331.125C665.222 324.148 660.44 317.389 655.537 310.688C652.504 306.523 649.498 302.341 646.537 298.125C645.797 297.076 645.057 296.026 644.295 294.945C642.621 292.327 641.437 289.922 640.412 287C639.752 287 639.092 287 638.412 287C637.163 285.551 637.163 285.551 635.768 283.527C635.255 282.792 634.743 282.057 634.215 281.299C633.682 280.52 633.149 279.74 632.6 278.938C631.552 277.426 630.504 275.914 629.455 274.402C628.948 273.664 628.44 272.925 627.918 272.164C626.486 270.106 625.011 268.086 623.526 266.066C621.412 263 621.412 263 621.412 261C620.752 261 620.092 261 619.412 261C617.826 259.023 617.826 259.023 616.037 256.375C615.409 255.453 614.782 254.532 614.135 253.582C612.91 251.746 611.69 249.905 610.475 248.062C607.253 243.279 603.822 238.651 600.412 234C599.763 233.114 599.763 233.114 599.1 232.21C597.232 229.662 595.363 227.114 593.494 224.567C590.03 219.846 586.573 215.121 583.139 210.379C582.037 208.861 580.928 207.347 579.811 205.84C576.412 201.217 576.412 201.217 576.412 199C575.752 199 575.092 199 574.412 199C571.412 195.538 571.412 195.538 571.412 193C570.752 193 570.092 193 569.412 193C568.217 191.319 567.105 189.578 566.037 187.812C564.206 184.799 562.412 182 560.186 179.262C558.412 177 558.412 177 558.412 175C557.752 175 557.092 175 556.412 175C552.412 169.588 552.412 169.588 552.412 167C551.752 167 551.092 167 550.412 167C549.108 165.375 549.108 165.375 547.537 163C544.31 158.25 540.935 153.643 537.475 149.062C533.254 143.47 529.098 137.844 525.033 132.137C523.492 129.994 523.492 129.994 521.697 128.332C520.412 127 520.412 127 520.412 125C519.752 125 519.092 125 518.412 125C517.546 123.422 517.546 123.422 516.662 121.812C514.846 118.621 512.792 115.805 510.412 113C506.234 114.527 504.676 117.167 502.287 120.812C499.157 125.494 495.932 130.053 492.475 134.5C492.057 135.039 491.639 135.578 491.208 136.133C489.945 137.757 488.679 139.379 487.412 141C481.317 148.813 475.422 156.728 469.651 164.784C465.343 170.772 460.902 176.648 456.412 182.5C450.845 189.758 445.403 197.088 440.078 204.525C436.463 209.568 432.775 214.548 429.037 219.5C425.384 224.343 421.809 229.219 418.361 234.211C415.711 238.004 412.999 241.751 410.287 245.5C409.448 246.66 409.448 246.66 408.592 247.843C407.44 249.436 406.287 251.029 405.134 252.621C402.39 256.412 399.651 260.206 396.912 264C393.594 268.596 390.275 273.19 386.951 277.781C382.037 284.572 377.131 291.364 372.35 298.25C369.572 302.192 366.74 306.094 363.912 310C356.679 320.003 349.656 330.106 342.825 340.389C339.103 345.985 335.304 351.52 331.412 357C326.879 363.421 322.417 369.89 317.975 376.375C317.449 377.141 316.924 377.908 316.382 378.697C313.441 382.997 310.531 387.315 307.647 391.652C304.597 396.237 301.52 400.802 298.424 405.355C297.994 405.988 297.564 406.62 297.121 407.272C296.235 408.575 295.349 409.878 294.463 411.182C287.089 422.032 279.775 432.908 272.716 443.967C270.71 447.095 268.676 450.204 266.645 453.315C260.855 462.189 255.155 471.114 249.514 480.082C246.744 484.483 243.948 488.866 241.148 493.247C231.313 508.647 221.834 524.247 212.451 539.926C210.431 543.302 208.405 546.674 206.373 550.043C200.446 559.879 194.613 569.762 188.885 579.715C187.386 582.32 185.877 584.918 184.346 587.504C181.806 591.799 179.332 596.068 177.162 600.562C174.727 605.569 171.918 610.328 169.1 615.125C165.331 621.558 161.799 628.032 158.54 634.736C155.701 640.532 152.6 646.167 149.475 651.812C144.41 660.997 139.78 670.316 135.403 679.845C134.167 682.532 132.913 685.21 131.659 687.888C130.795 689.734 129.935 691.582 129.076 693.43C127.995 695.751 126.906 698.068 125.811 700.383C115.403 722.431 105.602 744.795 97.5646 767.824C96.4 771.034 95.1196 774.169 93.7872 777.312C91.7408 782.155 89.9526 786.975 88.4122 792C88.0435 793.176 87.6749 794.351 87.295 795.562C82.4982 811.144 79.0204 827.019 76.1622 843.062C75.9991 843.965 75.8359 844.868 75.6678 845.797C70.5062 875.899 71.578 909.125 77.4122 939C77.6048 940.045 77.7973 941.09 77.9957 942.166C82.6305 967.241 90.0756 991.69 101.381 1014.6C102.412 1017 102.412 1017 102.412 1020C101.215 1020.04 100.017 1020.07 98.7833 1020.11C88.3394 1020.51 78.6057 1021.6 68.4122 1024C66.0973 1024.53 63.7822 1025.07 61.4669 1025.6C59.4487 1026.07 57.4304 1026.53 55.4122 1027C48.4749 1010.94 42.459 994.885 37.8497 978C37.6446 977.252 37.4395 976.504 37.2282 975.733C33.6602 962.629 30.5474 949.482 28.7872 936C28.666 935.131 28.5449 934.262 28.42 933.367C26.576 919.617 26.2513 905.983 26.2818 892.134C26.2872 889.269 26.2819 886.404 26.2755 883.539C26.267 866.966 26.745 850.736 29.5997 834.375C29.8197 833.092 30.0396 831.81 30.2662 830.488C32.389 818.493 35.1289 806.727 38.4122 795C38.8023 793.601 38.8023 793.601 39.2003 792.173C45.4396 770.11 53.7338 748.72 62.3927 727.508C63.4934 724.8 64.5783 722.086 65.6622 719.371C69.3355 710.217 73.1067 701.257 77.6617 692.503C79.3054 689.214 80.7479 685.907 82.1661 682.516C87.4572 670.197 93.6261 658.272 99.6356 646.292C101.372 642.831 103.102 639.365 104.829 635.899C111.72 622.078 118.657 608.315 126.33 594.906C128.371 591.311 130.356 587.684 132.35 584.062C137.167 575.366 142.152 566.77 147.15 558.176C148.98 555.021 150.792 551.856 152.6 548.688C153.238 547.57 153.876 546.452 154.533 545.301C155.779 543.113 157.021 540.923 158.26 538.73C164.129 528.378 170.25 518.181 176.412 508C176.897 507.199 177.381 506.398 177.88 505.573C182.819 497.419 187.815 489.312 193.005 481.316C195.993 476.696 198.868 472.014 201.725 467.312C210.653 452.638 219.889 438.173 229.337 423.827C232.529 418.964 235.599 414.092 238.412 409C239.072 409 239.732 409 240.412 409C240.635 408.344 240.858 407.688 241.088 407.012C242.855 402.993 245.19 399.472 247.6 395.812C248.097 395.051 248.593 394.29 249.105 393.506C252.189 388.802 255.349 384.163 258.608 379.578C260.906 376.294 263.13 372.963 265.35 369.625C265.781 368.978 266.211 368.33 266.655 367.663C268.579 364.769 270.497 361.871 272.408 358.969C276.803 352.317 281.361 345.796 285.977 339.298C289.653 334.111 293.194 328.854 296.693 323.547C298.164 321.367 299.685 319.271 301.287 317.188C304.072 313.555 306.585 309.759 309.1 305.938C312.973 300.06 317.031 294.359 321.226 288.708C326.068 282.164 330.649 275.448 335.235 268.723C343.433 256.719 352.039 244.996 360.6 233.25C363.456 229.329 366.284 225.388 369.1 221.438C374.685 213.603 380.317 205.803 385.958 198.009C387.207 196.284 388.454 194.558 389.701 192.832C393.941 186.979 398.261 181.193 402.627 175.434C404.408 173.149 404.408 173.149 405.412 171C406.072 171 406.732 171 407.412 171C407.735 169.995 407.735 169.995 408.065 168.969C409.851 165.034 412.334 161.901 414.975 158.5C419.776 152.234 424.31 145.861 428.67 139.281C429.245 138.528 429.82 137.776 430.412 137C431.072 137 431.732 137 432.412 137C432.624 136.332 432.835 135.665 433.053 134.977C434.881 130.974 437.445 127.816 440.162 124.375C441.342 122.858 442.52 121.34 443.697 119.82C444.309 119.032 444.92 118.243 445.549 117.431C448.627 113.415 451.612 109.333 454.6 105.25C459.383 98.7222 464.251 92.2769 469.221 85.8906C471.97 82.2642 474.527 78.5256 477.037 74.7305C477.718 73.8739 477.718 73.8739 478.412 73C479.072 73 479.732 73 480.412 73C480.803 71.8959 480.803 71.8959 481.201 70.7695C482.442 67.9324 483.8 66.0484 485.787 63.6875C489.498 59.1714 493.042 54.558 496.537 49.875C497.028 49.2185 497.518 48.5619 498.023 47.8855C498.99 46.5904 499.956 45.2949 500.921 43.999C503.411 40.6608 505.912 37.3305 508.412 34Z" fill="#DDB04C"/>
<path d="M506.412 36C507.402 36.33 508.392 36.66 509.412 37C509.693 46.3542 509.905 55.7069 510.034 65.0644C510.096 69.4116 510.18 73.7558 510.318 78.1013C511.378 112.548 511.378 112.548 502.093 123.301C501.064 124.381 500.013 125.44 498.938 126.475C496.408 129.004 494.403 131.87 492.287 134.75C491.472 135.806 490.653 136.86 489.83 137.91C482.915 146.747 476.185 155.663 469.651 164.784C465.343 170.772 460.902 176.648 456.412 182.5C450.845 189.758 445.403 197.088 440.078 204.525C436.463 209.568 432.775 214.548 429.037 219.5C425.384 224.343 421.809 229.219 418.361 234.211C415.711 238.004 412.999 241.751 410.287 245.5C409.448 246.66 409.448 246.66 408.592 247.843C407.44 249.436 406.287 251.029 405.134 252.621C402.39 256.412 399.651 260.206 396.912 264C393.594 268.596 390.275 273.19 386.951 277.781C382.037 284.572 377.131 291.364 372.35 298.25C369.572 302.192 366.74 306.094 363.912 310C356.679 320.003 349.656 330.106 342.825 340.389C339.103 345.985 335.304 351.52 331.412 357C326.879 363.421 322.417 369.89 317.975 376.375C317.449 377.141 316.924 377.908 316.382 378.697C313.441 382.997 310.531 387.315 307.647 391.652C304.597 396.237 301.52 400.802 298.424 405.355C297.994 405.988 297.564 406.62 297.121 407.272C296.235 408.575 295.349 409.878 294.463 411.182C287.089 422.032 279.775 432.908 272.716 443.967C270.71 447.095 268.676 450.204 266.645 453.315C260.855 462.189 255.155 471.114 249.514 480.082C246.744 484.483 243.948 488.866 241.148 493.247C231.313 508.647 221.834 524.247 212.451 539.926C210.431 543.302 208.405 546.674 206.373 550.043C200.446 559.879 194.613 569.762 188.885 579.715C187.386 582.32 185.877 584.918 184.346 587.504C181.806 591.799 179.332 596.068 177.162 600.562C174.727 605.569 171.918 610.328 169.1 615.125C165.331 621.558 161.799 628.032 158.54 634.736C155.701 640.532 152.6 646.167 149.475 651.812C144.41 660.997 139.78 670.316 135.403 679.845C134.167 682.532 132.913 685.21 131.659 687.888C130.795 689.734 129.935 691.582 129.076 693.43C127.995 695.751 126.906 698.068 125.811 700.383C115.403 722.431 105.602 744.795 97.5646 767.824C96.4 771.034 95.1196 774.169 93.7872 777.312C91.7408 782.155 89.9526 786.975 88.4122 792C88.0435 793.176 87.6749 794.351 87.295 795.562C82.4982 811.144 79.0204 827.019 76.1622 843.062C75.9991 843.965 75.8359 844.868 75.6678 845.797C70.5062 875.899 71.578 909.125 77.4122 939C77.6048 940.045 77.7973 941.09 77.9957 942.166C82.6305 967.241 90.0756 991.69 101.381 1014.6C102.412 1017 102.412 1017 102.412 1020C101.215 1020.04 100.017 1020.07 98.7833 1020.11C88.3394 1020.51 78.6057 1021.6 68.4122 1024C66.0973 1024.53 63.7822 1025.07 61.4669 1025.6C59.4487 1026.07 57.4304 1026.53 55.4122 1027C48.4749 1010.94 42.459 994.885 37.8497 978C37.6446 977.252 37.4395 976.504 37.2282 975.733C33.6602 962.629 30.5474 949.482 28.7872 936C28.666 935.131 28.5449 934.262 28.42 933.367C26.576 919.617 26.2513 905.983 26.2818 892.134C26.2872 889.269 26.2819 886.404 26.2755 883.539C26.267 866.966 26.745 850.736 29.5997 834.375C29.8197 833.092 30.0396 831.81 30.2662 830.488C32.389 818.493 35.1289 806.727 38.4122 795C38.8023 793.601 38.8023 793.601 39.2003 792.173C45.4396 770.11 53.7338 748.72 62.3927 727.508C63.4934 724.8 64.5783 722.086 65.6622 719.371C69.3355 710.217 73.1067 701.257 77.6617 692.503C79.3054 689.214 80.7479 685.907 82.1661 682.516C87.4572 670.197 93.6261 658.272 99.6356 646.292C101.372 642.831 103.102 639.365 104.829 635.899C111.72 622.078 118.657 608.315 126.33 594.906C128.371 591.311 130.356 587.684 132.35 584.062C137.167 575.366 142.152 566.77 147.15 558.176C148.98 555.021 150.792 551.856 152.6 548.688C153.238 547.57 153.876 546.452 154.533 545.301C155.779 543.113 157.021 540.923 158.26 538.73C164.129 528.378 170.25 518.181 176.412 508C176.897 507.199 177.381 506.398 177.88 505.573C182.819 497.419 187.815 489.312 193.005 481.316C195.993 476.696 198.868 472.014 201.725 467.312C210.653 452.638 219.889 438.173 229.337 423.827C232.529 418.964 235.599 414.092 238.412 409C239.072 409 239.732 409 240.412 409C240.635 408.344 240.858 407.688 241.088 407.012C242.855 402.993 245.19 399.472 247.6 395.812C248.097 395.051 248.593 394.29 249.105 393.506C252.189 388.802 255.349 384.163 258.608 379.578C260.906 376.294 263.13 372.963 265.35 369.625C265.781 368.978 266.211 368.33 266.655 367.663C268.579 364.769 270.497 361.871 272.408 358.969C276.803 352.317 281.361 345.796 285.977 339.298C289.653 334.111 293.194 328.854 296.693 323.547C298.164 321.367 299.685 319.271 301.287 317.188C304.072 313.555 306.585 309.759 309.1 305.938C312.973 300.06 317.031 294.359 321.226 288.708C326.068 282.164 330.649 275.448 335.235 268.723C343.433 256.719 352.039 244.996 360.6 233.25C363.456 229.329 366.284 225.388 369.1 221.438C374.685 213.603 380.317 205.803 385.958 198.009C387.207 196.284 388.454 194.558 389.701 192.832C393.941 186.979 398.261 181.193 402.627 175.434C404.408 173.149 404.408 173.149 405.412 171C406.072 171 406.732 171 407.412 171C407.735 169.995 407.735 169.995 408.065 168.969C409.851 165.034 412.334 161.901 414.975 158.5C419.776 152.234 424.31 145.861 428.67 139.281C429.245 138.528 429.82 137.776 430.412 137C431.072 137 431.732 137 432.412 137C432.624 136.332 432.835 135.665 433.053 134.977C434.881 130.974 437.445 127.816 440.162 124.375C441.342 122.858 442.52 121.34 443.697 119.82C444.309 119.032 444.92 118.243 445.549 117.431C448.627 113.415 451.612 109.333 454.6 105.25C459.383 98.7222 464.251 92.2769 469.221 85.8906C471.97 82.2642 474.527 78.5256 477.037 74.7305C477.718 73.8739 477.718 73.8739 478.412 73C479.072 73 479.732 73 480.412 73C480.803 71.8959 480.803 71.8959 481.201 70.7695C482.442 67.9324 483.8 66.0484 485.787 63.6875C489.532 59.126 493.123 54.4717 496.662 49.75C497.169 49.0767 497.676 48.4034 498.199 47.7097C501.065 43.8818 503.8 40.0056 506.412 36Z" fill="#F0D775"/>
<path d="M442.412 1516C450.115 1516.7 457.735 1517.73 465.381 1518.89C475.964 1520.46 486.499 1521.16 497.193 1521.24C498.278 1521.25 499.363 1521.26 500.481 1521.27C503.958 1521.29 507.435 1521.3 510.912 1521.31C512.095 1521.32 513.278 1521.32 514.497 1521.32C531.274 1521.34 547.318 1520.67 563.816 1517.46C567.989 1516.72 572.191 1516.34 576.412 1516C576.897 1517.17 577.381 1518.34 577.881 1519.55C585.038 1536.48 594.22 1548.13 608.533 1559.63C635.147 1581.52 635.147 1581.52 638.412 1597C639.612 1611.46 637.663 1622.36 628.252 1633.57C610.57 1652.35 582.331 1662.15 557.537 1666.62C556.366 1666.84 555.196 1667.05 553.99 1667.27C542.823 1669.21 531.734 1670.48 520.412 1671C518.85 1671.08 518.85 1671.08 517.257 1671.15C502.572 1671.76 488.364 1670.78 473.85 1668.69C473.107 1668.58 472.364 1668.47 471.599 1668.36C463.036 1667.11 454.713 1665.49 446.412 1663C445.146 1662.66 443.88 1662.32 442.576 1661.96C421.577 1655.87 395.991 1645.13 384.791 1625.1C380.314 1615.64 378.064 1604.38 380.958 1594.05C387.791 1575.89 405.186 1563.48 419.986 1552C429.337 1544.28 435.259 1534.22 439.412 1523C440.388 1520.66 441.399 1518.33 442.412 1516Z" fill="#DFB04B"/>
<path d="M279.154 767.734C280.284 767.73 281.414 767.726 282.578 767.722C283.802 767.731 285.026 767.741 286.287 767.75C288.241 767.758 288.241 767.758 290.234 767.766C298.859 767.832 307.435 768.246 316.037 768.875C330.15 769.907 344.267 770.459 358.41 770.931C362.278 771.062 366.146 771.202 370.014 771.342C381.691 771.751 393.337 772.055 405.021 771.926C407.821 771.915 410.621 771.908 413.42 771.902C415.964 771.876 418.499 771.785 421.04 771.692C431.751 771.53 431.751 771.53 436.31 775.565C438.599 778.61 440.48 781.721 442.412 785C451.068 795.014 461.433 802.505 473.474 807.875C474.086 808.149 474.698 808.423 475.328 808.706C485.723 813.08 495.943 814.517 507.165 814.446C509.213 814.438 511.257 814.466 513.305 814.498C526.952 814.57 539.255 811.336 551.412 805C552.365 804.52 553.317 804.041 554.299 803.547C560.116 800.414 565.154 796.79 570.037 792.375C570.527 791.939 571.016 791.503 571.521 791.054C574.253 788.481 576.332 786.137 578.249 782.865C580.835 778.547 583.531 774.133 588.387 772.224C594.123 770.959 599.975 771.116 605.818 771.145C607.744 771.106 609.669 771.062 611.594 771.013C616.675 770.897 621.753 770.856 626.835 770.833C631.844 770.799 636.852 770.703 641.861 770.607C647.808 770.497 653.755 770.392 659.702 770.316C677.412 770.082 695.072 769.268 712.756 768.328C719.972 767.953 727.188 767.729 734.412 767.563C735.976 767.523 735.976 767.523 737.572 767.484C745.154 767.363 751.73 769.588 757.359 774.804C762.269 780.165 763.967 785.057 763.783 792.312C762.702 800.141 758.383 805.67 752.474 810.625C748.278 813.423 744.435 814.27 739.441 814.547C738.242 814.617 737.044 814.687 735.808 814.76C733.847 814.861 733.847 814.861 731.846 814.965C730.447 815.043 729.049 815.122 727.651 815.201C723.848 815.414 720.044 815.615 716.24 815.812C713.841 815.938 711.443 816.066 709.044 816.196C623.754 820.787 538.458 823.11 290.8 815.147C288.502 815.006 286.203 814.883 283.904 814.767C283.215 814.729 282.526 814.692 281.816 814.653C280.029 814.556 278.243 814.466 276.456 814.378C270.711 813.665 265.759 811.486 261.764 807.254C260.412 805.438 260.412 805.438 258.412 802C258.048 801.397 257.685 800.793 257.31 800.172C254.816 794.143 255.607 786.059 257.912 780.062C262.055 772.043 270.341 767.754 279.154 767.734Z" fill="#FDFDFB"/>
<path d="M291.1 1291.62C302.182 1294.15 313.277 1296.31 324.475 1298.25C325.551 1298.44 325.551 1298.44 326.65 1298.63C330.039 1299.21 333.429 1299.8 336.82 1300.38C339.913 1300.91 342.998 1301.48 346.084 1302.05C356.153 1303.9 366.329 1305.12 376.474 1306.47C378.975 1306.81 381.476 1307.15 383.976 1307.49C402.968 1310.12 422.006 1311.97 441.1 1313.69C442.893 1313.85 442.893 1313.85 444.723 1314.02C466.792 1316.01 488.69 1317.19 510.85 1317.12C511.785 1317.12 512.721 1317.12 513.685 1317.12C524.139 1317.1 534.592 1317.08 545.037 1316.62C545.778 1316.59 546.518 1316.56 547.281 1316.53C553.116 1316.22 558.899 1315.48 564.696 1314.78C571.671 1313.94 578.656 1313.35 585.657 1312.8C599.103 1311.72 612.511 1310.41 625.912 1308.87C626.676 1308.79 627.44 1308.7 628.227 1308.61C630.383 1308.37 632.538 1308.12 634.693 1307.87C635.921 1307.72 637.149 1307.58 638.414 1307.43C641.455 1307.08 641.455 1307.08 644.412 1306C646.009 1305.76 647.612 1305.56 649.217 1305.39C650.181 1305.28 651.145 1305.16 652.138 1305.05C653.177 1304.93 654.216 1304.81 655.287 1304.69C663.855 1303.66 672.302 1302.39 680.762 1300.69C686.392 1299.57 692.029 1298.53 697.685 1297.55C698.781 1297.36 698.781 1297.36 699.899 1297.17C702.905 1296.65 705.91 1296.13 708.916 1295.61C717.087 1294.2 725.192 1292.7 733.225 1290.62C741.168 1288.65 748.914 1287.61 756.85 1290.06C760.753 1293.01 764.208 1296.59 766.412 1301C767.145 1308.14 766.684 1314.08 762.412 1320C754.386 1328.88 740.819 1329.32 729.6 1331C727.099 1331.39 724.6 1331.78 722.1 1332.17C720.457 1332.42 718.814 1332.68 717.171 1332.93C711.002 1333.89 704.86 1334.97 698.725 1336.12C688.858 1337.97 678.955 1339.51 669.029 1341C664.716 1341.64 660.41 1342.32 656.107 1343.04C640.326 1345.62 624.52 1347.27 608.596 1348.64C604.346 1349 600.097 1349.39 595.85 1349.78C590.256 1350.3 584.663 1350.81 579.068 1351.31C574.401 1351.73 569.734 1352.16 565.068 1352.6C526.029 1356.24 487.406 1355.51 448.412 1352C446.529 1351.83 444.646 1351.66 442.763 1351.5C437.082 1350.99 431.403 1350.47 425.725 1349.94C424.843 1349.86 423.962 1349.77 423.054 1349.69C407.485 1348.23 407.485 1348.23 400.08 1347C394.511 1346.09 388.958 1345.6 383.338 1345.14C369.993 1344.01 356.82 1341.92 343.6 1339.81C341.048 1339.41 338.495 1339.01 335.943 1338.61C321.458 1336.32 306.979 1333.99 292.517 1331.56C290.803 1331.27 289.089 1330.99 287.375 1330.7C261.41 1326.38 261.41 1326.38 255.412 1319C252.004 1313.12 251.526 1307.04 252.975 1300.44C261.858 1285.37 276.132 1288.03 291.1 1291.62Z" fill="#DDAF4E"/>
<path d="M280.986 623.691C281.802 623.708 282.618 623.724 283.458 623.741C286.111 623.803 288.761 623.898 291.412 624C292.302 624.031 293.193 624.061 294.11 624.092C299.806 624.29 305.499 624.534 311.192 624.798C329.16 625.626 347.123 626.285 365.107 626.658C365.837 626.674 366.567 626.691 367.319 626.707C369.245 626.75 371.17 626.788 373.096 626.826C376.641 626.935 380.164 627.205 383.7 627.481C392.725 628.142 401.749 628.358 410.795 628.547C411.76 628.568 412.724 628.588 413.718 628.61C444.747 629.256 475.784 629.243 506.819 629.249C509.302 629.25 511.786 629.251 514.27 629.253C558.94 629.276 603.572 628.981 648.225 627.625C649.289 627.593 650.354 627.562 651.45 627.529C672.101 626.911 692.691 626.161 713.28 624.41C719.724 623.87 726.132 623.666 732.6 623.688C734.196 623.663 734.196 623.663 735.824 623.639C745.103 623.633 750.807 625.743 757.678 632.121C762.06 636.868 763.03 642.122 762.83 648.375C761.445 657.071 756.245 663.184 749.35 668.25C741.007 672.73 728.762 671.226 719.537 671.5C712.619 671.707 705.72 671.949 698.818 672.469C684.24 673.561 669.624 674.073 655.017 674.6C648.844 674.824 642.674 675.075 636.504 675.366C630.365 675.655 624.226 675.899 618.084 676.099C614.738 676.21 611.397 676.345 608.053 676.517C585.702 677.641 585.702 677.641 580.876 673.701C578.581 670.895 577.066 668.209 575.412 665C573.799 663.281 572.138 661.605 570.412 660C569.764 659.354 569.115 658.708 568.447 658.043C549.361 640.091 525.701 636.323 500.416 636.695C476.585 637.457 456.93 650.666 440.809 667.348C439.361 668.942 439.361 668.942 438.451 670.808C437.297 672.941 436.246 674.403 434.412 676C430.624 676.969 426.947 676.713 423.064 676.523C421.303 676.48 421.303 676.48 419.507 676.435C416.191 676.344 412.879 676.221 409.566 676.084C405.817 675.938 402.068 675.834 398.319 675.724C389.088 675.442 379.86 675.091 370.631 674.729C367.039 674.588 363.446 674.451 359.853 674.313C350.244 673.945 340.636 673.567 331.027 673.184C326.869 673.018 322.711 672.855 318.553 672.694C313.283 672.488 308.012 672.275 302.742 672.051C300.968 671.977 299.193 671.904 297.418 671.835C271.281 670.796 271.281 670.796 263.412 664C257.855 657.933 255.966 651.618 256.162 643.457C256.807 637.116 259.997 632.415 264.412 628C269.867 624.395 274.543 623.434 280.986 623.691Z" fill="#FDFDFA"/>
<path d="M442.412 1516C449.095 1516.61 455.714 1517.44 462.35 1518.44C469.276 1519.45 476.202 1520.38 483.162 1521.12C484.185 1521.24 484.185 1521.24 485.228 1521.35C493.281 1522.18 501.311 1522.52 509.412 1523C509.412 1571.51 509.412 1620.02 509.412 1670C481.692 1670 481.692 1670 470.6 1668.19C468.897 1667.94 468.897 1667.94 467.16 1667.69C460.077 1666.6 453.283 1665.02 446.412 1663C445.146 1662.66 443.88 1662.32 442.576 1661.96C421.577 1655.87 395.991 1645.13 384.791 1625.1C380.314 1615.64 378.064 1604.38 380.958 1594.05C387.791 1575.89 405.186 1563.48 419.986 1552C429.337 1544.28 435.259 1534.22 439.412 1523C440.388 1520.66 441.399 1518.33 442.412 1516Z" fill="#F1D877"/>
<path d="M508.412 885C512.428 886.563 514.828 889.4 517.6 892.562C518.577 893.652 519.556 894.741 520.537 895.828C521.022 896.366 521.506 896.904 522.006 897.459C526.392 902.265 531.005 906.801 535.939 911.039C550.027 923.307 564.73 936.937 574.412 953C575.119 954.107 575.825 955.215 576.553 956.355C585.992 971.568 590.505 987.809 590.662 1005.62C590.672 1006.51 590.681 1007.39 590.691 1008.3C590.661 1014.15 589.86 1019.33 588.412 1025C587.752 1025 587.092 1025 586.412 1025C586.279 1023.95 586.147 1022.9 586.01 1021.82C585.832 1020.45 585.653 1019.07 585.475 1017.69C585.388 1017 585.301 1016.31 585.211 1015.6C584.82 1012.6 584.371 1009.88 583.412 1007C583.309 1005.04 583.229 1003.08 583.162 1001.12C582.542 992.305 579.568 984.471 575.1 976.875C573.412 974 573.412 974 573.412 971C572.752 971 572.092 971 571.412 971C571.19 970.513 570.969 970.025 570.74 969.523C566.953 961.976 561.506 955.992 555.936 949.731C554.36 947.941 552.823 946.121 551.287 944.297C549.126 941.768 546.911 939.51 544.35 937.375C540.559 934.144 537.062 930.718 533.611 927.125C529.687 923.101 525.713 919.649 521.154 916.367C518.828 914.542 517.209 912.336 515.412 910C514.393 909.093 513.353 908.209 512.295 907.348C511.344 906.573 510.392 905.798 509.412 905C509.444 906.959 509.444 906.959 509.476 908.957C509.991 944.592 508.452 979.733 505.891 1015.25C505.284 1023.71 504.775 1032.16 504.287 1040.62C503.631 1051.71 502.889 1062.8 502.087 1073.88C501.646 1080.09 501.313 1086.29 501.122 1092.52C500.66 1106.73 498.034 1120.53 493.412 1134C493.203 1134.62 492.994 1135.23 492.779 1135.87C483.771 1162.32 483.771 1162.32 480.412 1164C480.403 1163.24 480.393 1162.47 480.384 1161.68C480.124 1140.5 480.124 1140.5 475.412 1120C475.199 1119.36 474.986 1118.71 474.767 1118.05C468.625 1099.7 458.843 1083.4 449.057 1066.8C445.405 1060.59 441.839 1054.34 438.412 1048C437.552 1046.44 437.552 1046.44 436.674 1044.84C427.264 1026.37 424.771 1001.01 430.999 981.126C434.987 969.114 440.329 956.861 448.412 947C449.072 947 449.732 947 450.412 947C450.607 946.325 450.801 945.649 451.002 944.953C452.965 940.843 455.83 938.006 458.975 934.75C459.632 934.06 460.29 933.37 460.967 932.658C466.038 927.363 471.18 922.136 476.35 916.938C477.034 916.248 477.719 915.559 478.424 914.849C482.315 910.971 486.32 907.297 490.477 903.708C493.557 900.989 496.456 898.102 499.35 895.188C499.925 894.616 500.501 894.044 501.094 893.455C504.124 890.509 504.124 890.509 506.412 887C507.072 887 507.732 887 508.412 887C508.412 886.34 508.412 885.68 508.412 885Z" fill="#F0D774"/>
<path d="M833.412 1080C836.527 1082.56 839.521 1085.19 842.412 1088C842.082 1088.99 841.752 1089.98 841.412 1091C839.488 1091.51 837.56 1092.02 835.614 1092.44C832.171 1093.32 829.205 1094.87 826.1 1096.56C825.451 1096.91 824.802 1097.27 824.134 1097.63C817.96 1101.08 812.666 1105.27 807.412 1110C806.9 1110.45 806.388 1110.91 805.86 1111.37C798.897 1117.48 798.897 1117.48 792.686 1124.33C791.935 1125.21 791.185 1126.09 790.412 1127C789.752 1127 789.092 1127 788.412 1127C788.056 1127.81 788.056 1127.81 787.693 1128.63C786.065 1131.64 784.022 1134.25 781.912 1136.94C781.004 1138.1 780.097 1139.27 779.189 1140.43C778.727 1141.03 778.264 1141.62 777.787 1142.23C776.485 1143.91 775.197 1145.59 773.916 1147.29C768.764 1154.08 763.41 1160.65 757.857 1167.13C756.308 1168.95 754.788 1170.79 753.311 1172.68C750.391 1176.25 746.925 1179.03 743.412 1182C742.13 1183.15 742.13 1183.15 740.822 1184.32C710.943 1210.47 673.342 1219.66 634.412 1218C624.439 1217.12 614.867 1214.19 605.412 1211C605.412 1210.67 605.412 1210.34 605.412 1210C606.207 1209.99 607.002 1209.97 607.82 1209.96C629.198 1209.52 648.197 1207.44 668.412 1200C669.262 1199.69 670.111 1199.39 670.986 1199.07C682.463 1194.46 693.119 1186.7 702.373 1178.62C704.412 1177 704.412 1177 706.412 1177C706.412 1176.34 706.412 1175.68 706.412 1175C708.077 1173.66 709.744 1172.33 711.412 1171C713.587 1168.41 715.605 1165.74 717.643 1163.05C718.227 1162.37 718.81 1161.7 719.412 1161C720.072 1161 720.732 1161 721.412 1161C721.743 1160.22 721.743 1160.22 722.08 1159.41C723.913 1156.09 726.318 1153.29 728.725 1150.38C736.404 1140.94 743.661 1131.13 750.412 1121C751.072 1121 751.732 1121 752.412 1121C753.618 1118.67 754.578 1116.5 755.412 1114C754.752 1114 754.092 1114 753.412 1114C753.157 1114.57 752.902 1115.14 752.639 1115.73C751.273 1118.26 749.698 1120.17 747.787 1122.31C747.155 1123.03 746.524 1123.75 745.873 1124.49C743.872 1126.53 741.857 1128.37 739.693 1130.23C734.234 1134.95 729.266 1140.13 724.24 1145.3C723.516 1146.03 722.791 1146.77 722.045 1147.53C721.394 1148.2 720.743 1148.86 720.073 1149.55C718.412 1151 718.412 1151 716.412 1151C716.412 1151.66 716.412 1152.32 716.412 1153C715.752 1153 715.092 1153 714.412 1153C714.412 1153.66 714.412 1154.32 714.412 1155C711.447 1157.76 708.228 1160.21 705.046 1162.71C703.447 1163.97 701.862 1165.25 700.279 1166.54C673.142 1188.26 640.573 1198.41 605.855 1194.73C593.406 1192.99 593.406 1192.99 590.412 1190C592.369 1189.73 592.369 1189.73 594.365 1189.45C607.082 1187.64 619.109 1185.87 630.779 1180.24C633.211 1179.09 635.636 1178.16 638.162 1177.25C650.666 1172.29 661.34 1164.46 670.557 1154.74C672.412 1153 672.412 1153 674.412 1153C674.824 1152.12 674.824 1152.12 675.244 1151.22C676.368 1149.08 677.595 1147.38 679.1 1145.5C684.795 1137.97 689.059 1129.86 693.01 1121.32C705.638 1094.05 725.133 1074.29 753.186 1062.87C780.383 1053.26 811.179 1063.55 833.412 1080Z" fill="#DEAF4B"/>
<path d="M295.271 1080.21C295.978 1080.8 296.684 1081.39 297.412 1082C298.139 1082.58 298.866 1083.16 299.615 1083.76C312.557 1094.55 319.535 1108.37 326.969 1123.17C337.502 1143.82 349.899 1160.55 370.412 1172C371.019 1172.34 371.625 1172.69 372.25 1173.04C387.677 1181.65 405.733 1188.5 423.475 1189.63C424.6 1189.7 425.725 1189.77 426.885 1189.85C428.136 1189.93 428.136 1189.93 429.412 1190C429.082 1190.66 428.752 1191.32 428.412 1192C417.619 1194.78 406.573 1195.29 395.475 1195.31C393.807 1195.32 393.807 1195.32 392.106 1195.33C362.602 1195.08 336.774 1181.26 314.412 1163C313.612 1162.35 313.612 1162.35 312.796 1161.7C304.635 1155.09 297.142 1147.95 289.814 1140.43C287.699 1138.27 285.555 1136.14 283.412 1134C276.412 1127 269.412 1120 262.412 1113C262.412 1113.99 262.412 1114.98 262.412 1116C263.072 1116 263.732 1116 264.412 1116C266.27 1118.25 268.007 1120.52 269.725 1122.88C270.252 1123.59 270.78 1124.3 271.323 1125.03C274.179 1128.9 276.991 1132.8 279.779 1136.72C285.627 1144.93 291.481 1152.67 298.412 1160C299.522 1161.29 300.626 1162.58 301.725 1163.88C309.769 1173.05 318.161 1181.31 328.412 1188C328.962 1188.36 329.512 1188.72 330.079 1189.1C355.342 1205.55 381.814 1209.84 411.412 1211C408.374 1213.03 405.88 1213.97 402.412 1215.06C401.36 1215.4 400.308 1215.75 399.225 1216.1C380.825 1220.45 355.569 1220.4 337.412 1215C336.52 1214.74 335.628 1214.48 334.709 1214.22C299.251 1203.74 270.939 1183.23 249.412 1153C247.875 1150.93 246.334 1148.87 244.787 1146.81C244.052 1145.83 243.318 1144.85 242.561 1143.84C236.543 1135.89 230.23 1128.28 223.412 1121C222.964 1120.52 222.515 1120.03 222.053 1119.54C214.814 1111.81 207.324 1105.73 198.412 1100C197.706 1099.5 196.999 1098.99 196.271 1098.48C191.248 1094.99 185.966 1093.52 180.072 1091.99C179.194 1091.66 178.317 1091.34 177.412 1091C177.082 1090.01 176.752 1089.02 176.412 1088C190.267 1077.09 203.244 1067.1 220.412 1062C221.216 1061.75 222.021 1061.51 222.85 1061.25C248.297 1054.85 275.496 1064.09 295.271 1080.21Z" fill="#F0D774"/>
<path d="M370.412 1363C377.345 1363.49 384.169 1364.21 391.031 1365.31C424.744 1370.64 459.31 1372.85 493.412 1374C494.485 1374.04 494.485 1374.04 495.579 1374.07C524.082 1374.97 552.346 1372.76 580.741 1370.45C585.356 1370.08 589.972 1369.74 594.592 1369.42C598.925 1369.12 603.227 1368.74 607.537 1368.19C608.844 1368.02 610.151 1367.85 611.498 1367.68C615.509 1367.14 619.511 1366.54 623.514 1365.95C624.772 1365.76 626.03 1365.57 627.326 1365.38C629.857 1365.01 632.387 1364.62 634.917 1364.23C636.67 1363.97 636.67 1363.97 638.459 1363.71C639.509 1363.55 640.56 1363.39 641.642 1363.22C644.235 1363.01 645.967 1363.18 648.412 1364C647.573 1364.58 647.573 1364.58 646.717 1365.18C644.98 1366.39 643.246 1367.61 641.514 1368.82C639.389 1370.31 637.259 1371.8 635.123 1373.27C615.301 1387.05 597.474 1403.04 585.162 1424C584.816 1424.59 584.469 1425.18 584.112 1425.79C582.005 1429.52 580.866 1432.97 579.912 1437.12C579.002 1439.79 579.002 1439.79 577.412 1442C572.28 1444.45 567.004 1445.19 561.412 1446C559.668 1446.28 557.925 1446.57 556.182 1446.86C540.501 1449.32 524.894 1450.24 509.037 1450.25C508.251 1450.25 507.464 1450.25 506.654 1450.25C493.042 1450.24 479.85 1449.26 466.412 1447C465.355 1446.83 464.298 1446.66 463.208 1446.48C444.199 1443.39 444.199 1443.39 441.412 1442C440.425 1439.53 439.527 1437.07 438.662 1434.56C434.687 1423.56 428.985 1414.91 421.412 1406C420.711 1405.18 420.01 1404.35 419.287 1403.5C407.739 1390.3 394.177 1379.9 379.487 1370.45C376.075 1368.23 373.235 1365.92 370.412 1363Z" fill="#DDAF4D"/>
<path d="M509.412 905C510.732 905.66 512.052 906.32 513.412 907C513.412 907.66 513.412 908.32 513.412 909C514.031 909.248 514.65 909.495 515.287 909.75C517.816 911.237 518.13 912.437 519.412 915C519.965 915.259 520.518 915.518 521.088 915.785C524.366 917.499 526.905 919.944 529.6 922.438C530.146 922.928 530.691 923.418 531.254 923.924C533.783 926.246 535.309 927.691 536.412 931C537.731 931.696 539.067 932.357 540.412 933C546.725 938.097 552.223 943.79 557.412 950C558.334 951.061 559.257 952.121 560.182 953.18C561.175 954.328 562.169 955.476 563.162 956.625C563.634 957.164 564.107 957.702 564.594 958.257C571.412 966.22 571.412 966.22 571.412 971C572.072 971 572.732 971 573.412 971C575.499 975.392 577.561 979.794 579.587 984.215C580.212 985.567 580.857 986.911 581.51 988.25C584.002 993.861 583.951 999.856 584.201 1005.9C584.062 1008.87 584.062 1008.87 585.412 1010C585.649 1012.53 585.834 1015.03 585.975 1017.56C586.018 1018.27 586.061 1018.98 586.105 1019.72C586.212 1021.48 586.312 1023.24 586.412 1025C587.072 1025 587.732 1025 588.412 1025C585.845 1039.78 578.391 1053.46 570.412 1066C550.648 1098.07 539.236 1124.95 538.412 1163C537.752 1163 537.092 1163 536.412 1163C524.951 1134.31 517.633 1107.66 516.521 1076.64C516.336 1071.52 516.128 1066.4 515.916 1061.29C515.875 1060.29 515.834 1059.3 515.791 1058.28C515.431 1049.85 514.836 1041.47 514.09 1033.08C513.548 1026.95 513.2 1020.84 512.975 1014.69C512.38 998.758 510.806 982.876 509.412 967C509.082 967 508.752 967 508.412 967C508.742 946.54 509.072 926.08 509.412 905Z" fill="#DDAE4B"/>
<path d="M638.412 1019C642.423 1020.34 643.136 1022.77 644.974 1026.31C648.636 1033.03 653.031 1038.65 658.06 1044.43C671.602 1060.13 679.207 1074.9 678.697 1096.34C677.52 1111.46 671.865 1124.28 662.412 1136C661.794 1136.78 661.177 1137.56 660.541 1138.37C647.263 1154.3 628.565 1161.47 609.29 1167.4C607.638 1167.93 606.009 1168.52 604.385 1169.12C600.778 1170.19 597.269 1170.45 593.537 1170.62C592.849 1170.66 592.16 1170.7 591.451 1170.74C589.772 1170.84 588.092 1170.92 586.412 1171C586.412 1170.34 586.412 1169.68 586.412 1169C588.114 1167.63 589.877 1166.33 591.662 1165.06C609.506 1152.02 624.23 1135.16 630.623 1113.62C631.412 1111 631.412 1111 632.412 1108.64C633.683 1105.28 634.383 1101.89 635.037 1098.38C635.169 1097.67 635.301 1096.97 635.437 1096.25C636.459 1090.47 636.748 1084.87 636.412 1079C636.226 1079.8 636.226 1079.8 636.037 1080.62C630.257 1102.59 615.65 1122.93 599.849 1138.88C599.337 1139.39 598.824 1139.91 598.296 1140.45C594.67 1144 594.67 1144 592.412 1144C592.412 1144.66 592.412 1145.32 592.412 1146C587 1150 587 1150 584.412 1150C584.412 1150.66 584.412 1151.32 584.412 1152C561.773 1165 561.773 1165 557.412 1165C556.317 1134.82 565.717 1110.94 581.303 1085.48C585.353 1078.85 589.013 1071.99 592.412 1065C593.072 1065 593.732 1065 594.412 1065C594.412 1063.68 594.412 1062.36 594.412 1061C595.072 1061 595.732 1061 596.412 1061C596.516 1060.45 596.621 1059.89 596.728 1059.32C601.389 1043.5 617.616 1033.21 630.402 1024.39C631.676 1023.51 632.939 1022.61 634.187 1021.69C635.771 1020.55 635.771 1020.55 638.412 1019Z" fill="#DEAF4B"/>
<path d="M378.412 1020C383.699 1020.44 387.24 1023.31 391.412 1026.31C392.159 1026.85 392.906 1027.38 393.675 1027.93C398.535 1031.47 403.164 1035.19 407.6 1039.25C408.103 1039.71 408.606 1040.17 409.125 1040.64C416.042 1047.19 420.636 1054.88 425.037 1063.25C429.058 1070.77 433.226 1078.15 437.662 1085.44C445.589 1098.53 452.747 1111.37 457.412 1126C457.624 1126.66 457.836 1127.32 458.054 1128.01C461.819 1140.29 461.875 1152.24 461.412 1165C455.421 1163.19 450.02 1161 444.6 1157.88C443.912 1157.48 443.224 1157.09 442.515 1156.68C423.161 1145.38 409.12 1129.58 397.472 1110.7C396.502 1109.14 395.502 1107.61 394.498 1106.07C388.462 1096.47 384.328 1085.21 382.412 1074C380.844 1102.75 391.621 1129.06 410.357 1150.57C417.134 1158.12 425.614 1166.73 435.412 1170C435.412 1170.66 435.412 1171.32 435.412 1172C408.674 1169.39 381.526 1161.95 362.412 1142C361.573 1141.18 360.734 1140.36 359.869 1139.52C347.202 1126.53 341.043 1111.11 341.1 1093.19C341.084 1092.17 341.067 1091.15 341.051 1090.11C341.038 1070.3 350.917 1056.86 362.782 1042.05C368.388 1034.99 373.489 1027.55 378.412 1020Z" fill="#F0D674"/>
<path d="M55.4121 1079C61.0665 1078.69 65.3194 1079.66 70.5996 1081.63C71.7155 1082.03 71.7155 1082.03 72.854 1082.45C88.526 1088.31 100.639 1097.37 113.412 1108C114.033 1108.5 114.655 1108.99 115.295 1109.5C118.483 1112.06 120.915 1114.78 123.412 1118C125.559 1120.2 127.742 1122.36 129.971 1124.48C134.427 1128.81 138.322 1133.47 142.217 1138.3C145.808 1142.72 149.581 1146.97 153.4 1151.2C154.044 1151.92 154.687 1152.64 155.35 1153.38C155.936 1154.02 156.523 1154.67 157.127 1155.34C158.412 1157 158.412 1157 158.412 1159C159.072 1159 159.732 1159 160.412 1159C161.845 1160.62 163.208 1162.3 164.537 1164C167.989 1168.32 171.557 1172.27 175.525 1176.11C177.371 1177.96 179.046 1179.88 180.725 1181.88C193.841 1196.99 211.141 1209.09 228.412 1219C229.239 1219.48 230.066 1219.96 230.917 1220.45C261.085 1237.67 294.321 1246.45 328.975 1246.44C330.241 1246.44 330.241 1246.44 331.534 1246.44C347.909 1246.41 363.412 1244.65 379.412 1241C380.377 1240.78 381.342 1240.56 382.336 1240.34C405.632 1234.81 430.035 1224.88 449.334 1210.51C451.615 1208.85 453.98 1207.42 456.412 1206C455.117 1208.79 453.704 1211.03 451.689 1213.36C451.156 1213.97 450.622 1214.59 450.073 1215.23C449.504 1215.87 448.935 1216.52 448.35 1217.19C447.76 1217.86 447.171 1218.53 446.564 1219.22C444.855 1221.16 443.137 1223.08 441.412 1225C440.643 1225.86 439.873 1226.71 439.08 1227.6C429.824 1237.35 418.396 1245.02 406.412 1251C405.164 1251.65 403.917 1252.31 402.67 1252.96C358.81 1275.77 308.876 1275.23 262.466 1260.61C244.67 1254.77 227.748 1247.13 211.412 1238C210.476 1237.48 210.476 1237.48 209.521 1236.96C202.042 1232.83 202.042 1232.83 199.412 1231C199.412 1230.34 199.412 1229.68 199.412 1229C198.742 1228.77 198.071 1228.54 197.381 1228.31C193.573 1226.63 190.324 1224.43 186.912 1222.06C185.857 1221.33 185.857 1221.33 184.781 1220.59C179.045 1216.57 173.692 1212.21 168.416 1207.61C165.673 1205.23 162.876 1202.95 160.037 1200.69C150.859 1193.21 141.711 1185.16 134.131 1176.03C132.344 1173.92 130.469 1171.9 128.576 1169.89C122.531 1163.43 117.056 1156.62 111.663 1149.61C109.864 1147.29 108.012 1145.02 106.162 1142.75C103.128 1138.97 100.332 1135.07 97.5762 1131.09C86.2018 1114.87 74.4607 1099.61 60.1858 1085.85C59.5657 1085.24 58.9456 1084.64 58.3066 1084.02C57.7482 1083.48 57.1898 1082.95 56.6145 1082.4C55.4121 1081 55.4121 1081 55.4121 1079Z" fill="#F0D674"/>
<path d="M963.412 1078C963.412 1081 963.412 1081 962.143 1082.59C961.563 1083.15 960.983 1083.71 960.385 1084.29C959.758 1084.9 959.131 1085.51 958.484 1086.14C957.49 1087.09 957.49 1087.09 956.475 1088.06C955.172 1089.32 953.871 1090.58 952.572 1091.85C951.991 1092.4 951.41 1092.96 950.811 1093.54C949.306 1094.97 949.306 1094.97 948.412 1097C947.752 1097 947.092 1097 946.412 1097C945.752 1098.32 945.092 1099.64 944.412 1101C943.752 1101 943.092 1101 942.412 1101C942.103 1101.78 941.793 1102.57 941.475 1103.38C940.412 1106 940.412 1106 939.412 1108C938.752 1108 938.092 1108 937.412 1108C937.138 1108.58 936.863 1109.16 936.58 1109.76C935.437 1111.95 934.174 1113.87 932.725 1115.87C931.93 1116.97 931.93 1116.97 931.12 1118.09C930.556 1118.87 929.993 1119.64 929.412 1120.44C928.836 1121.23 928.259 1122.03 927.665 1122.85C923.297 1128.85 918.815 1134.75 914.24 1140.59C912.412 1142.85 912.412 1142.85 911.412 1145C910.752 1145 910.092 1145 909.412 1145C909.058 1145.8 909.058 1145.8 908.697 1146.62C907.042 1149.69 904.982 1152.38 902.85 1155.12C902.411 1155.69 901.972 1156.26 901.52 1156.85C897.957 1161.41 894.17 1165.74 890.225 1169.98C888.262 1172.07 888.262 1172.07 886.412 1175C885.752 1175 885.092 1175 884.412 1175C884.15 1175.59 883.889 1176.17 883.619 1176.78C882.345 1179.12 880.985 1180.69 879.104 1182.57C878.444 1183.24 877.785 1183.9 877.106 1184.58C876.051 1185.62 876.051 1185.62 874.975 1186.69C874.252 1187.41 873.529 1188.12 872.784 1188.86C868.06 1193.5 863.251 1197.84 858.041 1201.93C855.162 1204.2 852.386 1206.56 849.6 1208.94C833.557 1222.31 815.803 1233.19 797.412 1243C796.718 1243.37 796.024 1243.74 795.309 1244.12C783.498 1250.36 771.357 1255.05 758.682 1259.24C756.511 1259.97 754.348 1260.71 752.186 1261.46C709.388 1275.98 660.382 1275.11 619.445 1255.04C606.847 1248.78 595.94 1241.6 585.604 1231.98C583.465 1229.97 583.465 1229.97 581.127 1228.36C580.561 1227.91 579.995 1227.46 579.412 1227C579.412 1226.34 579.412 1225.68 579.412 1225C578.752 1225 578.092 1225 577.412 1225C575.967 1223.6 575.967 1223.6 574.287 1221.62C573.675 1220.91 573.062 1220.19 572.432 1219.45C569.04 1215.34 565.711 1211.18 562.412 1207C565.412 1207 565.412 1207 568.412 1209C568.412 1209.66 568.412 1210.32 568.412 1211C569.122 1211.26 569.833 1211.51 570.564 1211.78C573.633 1213.09 576.187 1214.73 578.975 1216.56C611.871 1237.36 651.502 1246.22 689.975 1246.25C690.776 1246.25 691.578 1246.25 692.404 1246.25C704.051 1246.24 715.04 1245.67 726.412 1243C727.864 1242.71 729.317 1242.43 730.771 1242.16C761.275 1236.16 791.599 1222.01 815.412 1202C817.015 1200.75 818.619 1199.5 820.225 1198.25C836.219 1186.15 836.219 1186.15 848.412 1171C849.072 1171 849.732 1171 850.412 1171C850.634 1170.46 850.856 1169.92 851.084 1169.36C852.841 1166.24 855.207 1163.82 857.662 1161.25C861.531 1157.14 865.092 1153 868.291 1148.33C868.661 1147.89 869.031 1147.45 869.412 1147C870.072 1147 870.732 1147 871.412 1147C871.68 1146.42 871.948 1145.85 872.225 1145.25C873.441 1142.94 874.715 1140.98 876.412 1139C877.072 1139 877.732 1139 878.412 1139C878.783 1138.17 878.783 1138.17 879.162 1137.33C880.654 1134.55 882.449 1132.22 884.412 1129.75C885.113 1128.86 885.815 1127.97 886.537 1127.05C887.156 1126.37 887.775 1125.7 888.412 1125C889.072 1125 889.732 1125 890.412 1125C890.675 1124.41 890.937 1123.83 891.208 1123.22C893.331 1119.3 896.644 1116.43 899.787 1113.31C900.857 1112.25 900.857 1112.25 901.948 1111.16C917.409 1096 917.409 1096 922.412 1096C922.412 1095.34 922.412 1094.68 922.412 1094C935.964 1086.64 948.172 1080.9 963.412 1078Z" fill="#DDB04D"/>
<path d="M168.412 1063C169.444 1064.31 170.451 1065.64 171.412 1067C170.817 1067.58 170.221 1068.17 169.608 1068.77C167.394 1070.95 165.184 1073.14 162.977 1075.33C161.554 1076.73 160.126 1078.14 158.697 1079.54C157.801 1080.43 156.905 1081.32 155.982 1082.23C155.155 1083.05 154.328 1083.87 153.475 1084.71C149.881 1088.7 149.187 1091.51 148.951 1096.9C149.662 1100.14 151.05 1101.7 153.412 1104C156.762 1105.22 156.762 1105.22 160.6 1105.87C189.495 1112.23 209.345 1130.62 226.412 1154C228.247 1156.39 230.108 1158.76 231.975 1161.12C232.433 1161.71 232.891 1162.29 233.363 1162.89C237 1167.51 240.702 1172.06 244.439 1176.6C245.766 1178.21 247.07 1179.85 248.354 1181.5C250.562 1184.18 252.918 1186.58 255.412 1189C256.748 1190.31 256.748 1190.31 258.111 1191.66C276.249 1209.07 297.314 1222.52 321.412 1230C321.412 1230.33 321.412 1230.66 321.412 1231C315.231 1231.12 309.443 1230.76 303.35 1229.75C302.532 1229.62 301.714 1229.48 300.871 1229.35C292.928 1228.01 285.175 1226.13 277.412 1224C276.03 1223.63 276.03 1223.63 274.619 1223.25C249.431 1216.17 224.93 1201.22 205.412 1184C204.915 1183.56 204.418 1183.13 203.905 1182.68C198.277 1177.71 192.888 1172.66 188.053 1166.89C186.261 1164.83 184.364 1162.92 182.412 1161C178.532 1157.16 174.952 1153.15 171.412 1149C169.434 1146.69 167.454 1144.37 165.475 1142.06C164.954 1141.45 164.433 1140.84 163.897 1140.22C160.373 1136.1 156.807 1132.03 153.193 1128C151.478 1126.07 149.787 1124.13 148.1 1122.19C137.336 1109.88 126.382 1098.03 113.412 1088C112.885 1087.59 112.358 1087.18 111.814 1086.76C98.2447 1076.34 83.959 1069.37 67.4121 1065C66.7475 1064.82 66.0829 1064.63 65.3982 1064.45C58.7586 1062.77 52.1717 1062.56 45.3496 1062.37C44.1978 1062.34 43.0461 1062.3 41.8594 1062.26C39.0438 1062.16 36.2282 1062.08 33.4121 1062C67.4751 1026.32 132.867 1036.38 168.412 1063Z" fill="#F0D675"/>
<path d="M983.412 1059C984.76 1060.32 986.095 1061.65 987.412 1063C986.658 1062.97 985.904 1062.95 985.127 1062.92C963.815 1062.28 947.43 1064.16 928.412 1074C927.505 1074.45 926.597 1074.9 925.662 1075.36C905.935 1085.54 887.357 1101.46 874.041 1119.13C873.235 1120.06 873.235 1120.06 872.412 1121C871.752 1121 871.092 1121 870.412 1121C870.167 1121.56 869.922 1122.13 869.67 1122.71C868.185 1125.41 866.392 1127.37 864.287 1129.63C856.54 1137.72 856.54 1137.72 850.412 1147C849.752 1147 849.092 1147 848.412 1147C848.143 1147.59 847.874 1148.18 847.596 1148.79C846.411 1151 845.18 1152.54 843.463 1154.36C842.87 1155 842.277 1155.63 841.666 1156.28C841.025 1156.95 840.385 1157.62 839.725 1158.31C839.058 1159.02 838.391 1159.72 837.703 1160.44C835.613 1162.64 833.514 1164.82 831.412 1167C830.448 1168.01 830.448 1168.01 829.464 1169.04C794.866 1205.05 747.858 1229.28 697.412 1231C699 1227.82 702.281 1227.48 705.475 1226.38C725.633 1219.06 745.06 1207.73 760.088 1192.24C762.412 1190 762.412 1190 764.412 1190C764.742 1189.01 765.072 1188.02 765.412 1187C766.072 1187 766.732 1187 767.412 1187C767.656 1186.44 767.899 1185.87 768.15 1185.29C769.647 1182.57 771.468 1180.63 773.6 1178.38C777.533 1174.11 780.841 1169.69 784.002 1164.84C784.467 1164.23 784.933 1163.62 785.412 1163C786.072 1163 786.732 1163 787.412 1163C787.631 1162.31 787.85 1161.62 788.076 1160.9C789.751 1157.26 792.152 1154.53 794.787 1151.56C798.336 1147.53 801.469 1143.51 804.412 1139C806.032 1137.29 807.708 1135.63 809.412 1134C810.155 1133.24 810.897 1132.47 811.662 1131.69C812.466 1130.86 813.271 1130.04 814.1 1129.19C814.867 1128.4 815.634 1127.61 816.424 1126.79C818.412 1125 818.412 1125 820.412 1125C820.412 1124.34 820.412 1123.68 820.412 1123C832.4 1113.93 845.703 1106.71 860.779 1105.15C864.443 1104.7 866.176 1104.23 868.869 1101.63C870.936 1098.11 870.977 1096.03 870.412 1092C868.784 1088.85 868.784 1088.85 866.412 1086C865.67 1085.03 864.927 1084.06 864.162 1083.06C861.51 1079.94 858.465 1077.33 855.35 1074.68C852.909 1072.56 850.66 1070.32 848.412 1068C852.57 1057.88 869.348 1051.53 879.029 1047.49C913.682 1034.64 952.638 1037.67 983.412 1059Z" fill="#DEAF4C"/>
<path d="M291.1 1291.63C302.182 1294.15 313.277 1296.31 324.475 1298.25C325.551 1298.44 325.551 1298.44 326.65 1298.63C330.039 1299.21 333.429 1299.8 336.82 1300.38C339.913 1300.91 342.998 1301.48 346.084 1302.05C356.153 1303.9 366.329 1305.12 376.474 1306.47C378.975 1306.81 381.476 1307.15 383.976 1307.49C420.183 1312.49 456.78 1315.71 493.286 1317.46C495.193 1317.55 495.193 1317.55 497.139 1317.64C498.217 1317.69 499.296 1317.73 500.407 1317.78C503.428 1318 506.424 1318.5 509.412 1319C509.412 1330.55 509.412 1342.1 509.412 1354C485.126 1354.61 461.489 1353.42 437.35 1351.13C436.631 1351.06 435.913 1350.99 435.173 1350.92C430.302 1350.46 425.433 1349.99 420.564 1349.51C418.713 1349.33 418.713 1349.33 416.824 1349.14C409.984 1348.45 403.22 1347.53 396.431 1346.45C392.079 1345.8 387.723 1345.47 383.338 1345.14C369.992 1344.02 356.819 1341.92 343.6 1339.81C341.048 1339.41 338.495 1339.01 335.943 1338.61C321.458 1336.32 306.979 1333.99 292.517 1331.56C290.803 1331.27 289.089 1330.99 287.375 1330.7C261.41 1326.38 261.41 1326.38 255.412 1319C252.004 1313.12 251.526 1307.04 252.975 1300.44C261.858 1285.37 276.132 1288.03 291.1 1291.63Z" fill="#F1D775"/>
<path d="M507.975 671.562C508.944 671.552 509.914 671.542 510.913 671.531C524.759 671.7 537.574 677.083 547.725 686.562C559.601 699.271 564.193 713.358 563.69 730.508C563.429 735.75 562.617 740.213 560.412 745C559.699 746.551 559.699 746.551 558.971 748.133C551.411 763.253 540.288 773.153 524.412 779C513.11 782.294 497.847 781.589 487.201 776.617C482.285 773.766 477.783 770.632 473.412 767C472.766 766.479 472.121 765.958 471.455 765.422C461.334 756.374 455.872 742.74 455.104 729.449C454.482 712.408 459.366 698.783 471.088 686.168C475.453 682.096 480.24 678.953 485.412 676C486.206 675.542 487 675.085 487.818 674.613C494.305 671.612 500.951 671.625 507.975 671.562Z" fill="#BF2526"/>
<path d="M747.221 695.664C748.581 695.622 748.581 695.622 749.969 695.578C758.018 695.525 764.854 698.016 770.85 703.5C771.807 704.351 771.807 704.351 772.783 705.219C777.262 710.117 776.833 715.121 776.721 721.516C776.152 727.933 773.831 731.91 769.225 736.313C761.367 742.284 752.399 742.564 742.85 743C741.444 743.073 740.038 743.147 738.632 743.222C735.42 743.393 732.208 743.555 728.996 743.714C722.691 744.031 716.39 744.394 710.088 744.754C672.167 746.904 634.392 748.238 596.412 748C596.553 746.541 596.7 745.083 596.85 743.625C596.931 742.813 597.012 742.001 597.096 741.164C597.412 739 597.412 739 598.412 737C598.656 733.13 598.597 729.251 598.6 725.375C598.612 724.306 598.624 723.238 598.637 722.137C598.648 716.024 598.08 710.869 596.412 705C596.412 703.68 596.412 702.36 596.412 701C597.168 700.982 597.923 700.963 598.701 700.944C608.564 700.702 618.425 700.449 628.287 700.188C629.089 700.166 629.891 700.145 630.718 700.123C657.357 699.416 683.97 698.417 710.585 697.066C722.79 696.447 735 695.858 747.221 695.664Z" fill="#FDFDFB"/>
<path d="M270.975 695.625C272.043 695.639 273.111 695.654 274.212 695.668C285.753 695.886 297.284 696.531 308.81 697.145C322.903 697.894 336.998 698.517 351.1 699.062C352.185 699.104 353.27 699.146 354.388 699.19C377.057 700.056 399.731 700.588 422.412 701C422.258 702.438 422.103 703.875 421.947 705.313C421.86 706.113 421.774 706.914 421.685 707.739C421.472 709.5 421.182 711.251 420.861 712.996C420.258 717.03 420.221 720.989 420.225 725.062C420.224 726.31 420.224 726.31 420.223 727.583C420.282 734.557 421.101 741.147 422.412 748C404.002 748.114 385.625 747.833 367.225 747.25C366.56 747.229 365.896 747.208 365.212 747.187C342.035 746.46 318.876 745.436 295.721 744.189C293.358 744.063 290.994 743.942 288.631 743.822C284.906 743.632 281.183 743.429 277.46 743.215C275.439 743.101 273.417 743 271.396 742.899C261.275 742.288 253.91 740.107 246.412 733C241.812 727.472 241.81 721.164 242.025 714.215C242.516 710.14 243.59 707.975 246.412 705C247.134 704.134 247.856 703.267 248.6 702.375C255.431 696.606 262.241 695.39 270.975 695.625Z" fill="#FCFDFA"/>
<path d="M557.51 669.473C570.768 681.018 580.811 697.264 582.412 715C583.563 737.11 580.557 755.318 566.412 773C565.12 774.373 563.788 775.71 562.412 777C561.69 777.763 560.968 778.526 560.225 779.312C556.502 782.869 552.566 785.964 548.412 789C547.73 789.53 547.048 790.06 546.346 790.605C532.658 800.131 512.426 802.174 496.295 799.336C483.272 796.653 471.352 790.892 461.412 782C460.676 781.357 459.94 780.713 459.182 780.051C445.173 767.007 437.014 748.877 436.041 729.773C435.544 707.841 442.053 691.003 456.275 674.168C456.981 673.452 457.686 672.737 458.412 672C459.072 672 459.732 672 460.412 672C460.412 671.34 460.412 670.68 460.412 670C462.459 668.289 464.491 666.727 466.662 665.187C467.294 664.738 467.926 664.289 468.576 663.826C496.103 644.82 532.348 648.787 557.51 669.473ZM484.412 677C483.475 677.508 482.538 678.016 481.572 678.539C468.514 686.098 461.133 697.357 456.24 711.351C455.252 715.705 455.068 719.738 455.1 724.187C455.105 725.025 455.111 725.863 455.117 726.726C455.436 743.12 461.692 755.62 473.412 767C483.692 776.138 495.052 780.356 508.662 780.312C509.648 780.329 510.634 780.345 511.65 780.361C521.427 780.368 529.496 778.244 537.6 772.75C538.198 772.352 538.797 771.953 539.414 771.543C547.75 765.871 552.623 759.815 557.412 751C557.805 750.295 558.198 749.59 558.604 748.863C564.49 737.806 565.044 724.705 562.76 712.519C558.684 699.279 550.728 686.571 538.459 679.672C522.073 671.056 501.181 666.913 484.412 677Z" fill="#DFB149"/>
<path d="M508.412 1148C510.412 1149 510.412 1149 511.35 1151.42C511.7 1152.52 512.051 1153.62 512.412 1154.75C520.498 1178.54 533.622 1201.57 549.189 1221.25C550.412 1223 550.412 1223 550.412 1225C551.072 1225 551.732 1225 552.412 1225C553.636 1226.41 554.791 1227.88 555.912 1229.38C570.93 1248.51 591.67 1262.83 613.542 1273.11C615.277 1273.94 616.996 1274.79 618.713 1275.65C627.33 1279.87 636.185 1282.5 645.412 1285C645.412 1285.66 645.412 1286.32 645.412 1287C644.56 1287.09 643.707 1287.17 642.829 1287.26C639.652 1287.58 636.474 1287.9 633.297 1288.23C631.924 1288.37 630.552 1288.51 629.179 1288.64C627.201 1288.84 625.222 1289.04 623.244 1289.25C621.461 1289.43 621.461 1289.43 619.642 1289.61C616.851 1289.95 614.163 1290.44 611.412 1291C600.276 1291.9 592.905 1291.34 583.412 1285C581.143 1283.79 578.872 1282.58 576.6 1281.38C560.116 1272.13 545.735 1256.91 534.412 1242C533.964 1241.41 533.516 1240.82 533.054 1240.22C510.412 1210.2 510.412 1210.2 510.412 1201C508.14 1203.09 506.736 1205.01 505.389 1207.78C505.014 1208.53 504.64 1209.28 504.254 1210.05C503.853 1210.86 503.451 1211.67 503.037 1212.5C494.852 1228.44 484.586 1242.86 472.412 1256C471.52 1256.96 470.628 1257.93 469.709 1258.92C457.313 1271.77 436.79 1290.81 418.018 1291.21C411.587 1291.08 405.193 1290.42 398.798 1289.77C396.718 1289.56 394.639 1289.36 392.559 1289.15C386.489 1288.55 380.447 1287.89 374.412 1287C374.412 1286.34 374.412 1285.68 374.412 1285C375.624 1284.6 376.836 1284.2 378.084 1283.79C406.742 1274.13 430.561 1260.93 452.412 1240C452.911 1239.53 453.41 1239.06 453.924 1238.57C465.436 1227.65 474.984 1215.45 483.412 1202C483.792 1201.4 484.172 1200.8 484.563 1200.18C494.781 1183.89 502.95 1166.46 508.412 1148Z" fill="#DEB24E"/>
<path d="M370.412 1363C377.343 1363.49 384.167 1364.21 391.027 1365.31C430.102 1371.49 469.959 1372.93 509.412 1375C509.435 1384.35 509.453 1393.71 509.464 1403.06C509.469 1407.4 509.476 1411.74 509.488 1416.09C509.498 1420.28 509.504 1424.46 509.507 1428.65C509.509 1430.25 509.512 1431.85 509.518 1433.45C509.525 1435.69 509.526 1437.93 509.526 1440.16C509.528 1441.44 509.53 1442.71 509.532 1444.03C509.412 1447 509.412 1447 508.412 1449C491.777 1449.37 475.814 1448.87 459.412 1446C458.194 1445.79 458.194 1445.79 456.951 1445.58C444.158 1443.37 444.158 1443.37 441.412 1442C440.425 1439.53 439.527 1437.07 438.662 1434.56C434.687 1423.56 428.985 1414.91 421.412 1406C420.711 1405.18 420.01 1404.35 419.287 1403.5C407.739 1390.3 394.177 1379.9 379.487 1370.45C376.075 1368.23 373.235 1365.92 370.412 1363Z" fill="#F1D674"/>
<path d="M452.636 1684.33C471.4 1688.46 489.744 1689.49 508.924 1689.39C512.41 1689.37 515.895 1689.38 519.381 1689.4C533.963 1689.46 548.135 1689.22 562.412 1686C563.725 1685.71 565.038 1685.42 566.35 1685.13C568.475 1684.66 570.597 1684.16 572.713 1683.65C584.902 1680.72 584.902 1680.72 590.6 1683.62C594.465 1686.89 596.813 1690.2 598.412 1695C598.794 1699.67 598.891 1702.04 596.787 1706.25C591.246 1712.67 585.201 1714.17 577.162 1716C575.511 1716.38 575.511 1716.38 573.827 1716.77C552.375 1721.59 531.382 1723.74 509.412 1724C508.461 1724.02 507.509 1724.03 506.529 1724.05C494.011 1724.23 481.888 1723.68 469.537 1721.56C468.823 1721.44 468.108 1721.32 467.373 1721.19C464.273 1720.63 461.333 1719.97 458.35 1718.96C454.978 1717.86 451.812 1717.49 448.287 1717.12C431.179 1715.07 431.179 1715.07 425.287 1709.5C421.782 1704.83 420.914 1701.41 421.025 1695.61C421.784 1690.5 424.515 1686.7 428.299 1683.3C435.167 1679.06 445.279 1682.7 452.636 1684.33Z" fill="#F1D775"/>
<path d="M446.35 1462.77C448.038 1463.11 449.726 1463.46 451.412 1463.81C483.203 1469.89 515.215 1470.94 547.35 1467.19C548.058 1467.1 548.766 1467.02 549.496 1466.94C558.137 1465.9 566.641 1464.45 575.146 1462.62C580.806 1461.55 586.015 1460.93 591.35 1463.31C592.03 1463.87 592.711 1464.43 593.412 1465C593.969 1465.45 594.526 1465.91 595.1 1466.37C598.311 1470.35 599.005 1474.66 598.83 1479.66C598.017 1484.21 595.912 1487.05 592.412 1490C578.54 1498.09 559.613 1498.96 543.943 1500.61C540.557 1500.93 540.557 1500.93 537.832 1501.51C533.266 1502.16 528.769 1502.2 524.162 1502.24C523.164 1502.25 522.166 1502.26 521.137 1502.27C498.875 1502.44 477.348 1502.15 455.412 1498C454.312 1497.8 453.212 1497.6 452.078 1497.4C448.891 1496.82 445.713 1496.2 442.537 1495.56C441.621 1495.38 440.705 1495.2 439.761 1495.01C432.986 1493.52 427.228 1490.99 422.412 1485.87C420.79 1481.21 420.556 1476.86 421.412 1472C427.01 1461.09 435.18 1460.76 446.35 1462.77Z" fill="#DEB14E"/>
<path d="M566.412 1738C566.412 1753.18 566.412 1768.36 566.412 1784C529.122 1784 491.832 1784 453.412 1784C453.412 1769.15 453.412 1754.3 453.412 1739C461.276 1739 461.276 1739 465.049 1739.62C465.874 1739.75 466.7 1739.88 467.551 1740.02C468.392 1740.16 469.233 1740.29 470.1 1740.44C482.104 1742.41 493.935 1743.2 506.1 1743.19C507.35 1743.19 508.601 1743.19 509.89 1743.19C518.321 1743.13 526.694 1742.79 535.1 1742.12C536.095 1742.05 537.09 1741.97 538.116 1741.89C543.561 1741.4 548.841 1740.62 554.183 1739.46C558.197 1738.63 562.309 1738 566.412 1738Z" fill="#DEB04C"/>
<path d="M509.412 652C509.412 658.27 509.412 664.54 509.412 671C506.958 671.412 504.503 671.825 501.975 672.25C495.655 673.403 490.044 674.804 484.412 678C483.074 678.741 483.074 678.741 481.709 679.496C469 687.014 462.067 697.569 457.236 711.355C456.252 715.707 456.068 719.741 456.1 724.188C456.105 725.025 456.111 725.863 456.117 726.727C456.41 741.796 461.605 753.777 472.006 764.715C482.679 774.85 495.007 779.091 509.412 781C509.412 786.94 509.412 792.88 509.412 799C490.865 799.506 475.464 794.57 461.412 782C460.676 781.357 459.94 780.714 459.182 780.051C445.173 767.007 437.014 748.877 436.041 729.773C435.544 707.841 442.053 691.004 456.275 674.168C456.981 673.453 457.686 672.737 458.412 672C459.072 672 459.732 672 460.412 672C460.412 671.34 460.412 670.68 460.412 670C462.459 668.289 464.491 666.727 466.662 665.188C467.294 664.738 467.926 664.289 468.576 663.826C481.068 655.201 494.401 652 509.412 652Z" fill="#F0D672"/>
<path d="M508.412 1148C508.742 1148 509.072 1148 509.412 1148C509.617 1154.97 509.756 1161.94 509.852 1168.91C509.891 1171.28 509.946 1173.64 510.016 1176C510.452 1191.16 509.722 1202.14 501.412 1215C500.456 1216.82 499.515 1218.66 498.6 1220.5C482.113 1250.14 456.694 1276.4 425.475 1290.31C416.77 1292.27 407.576 1290.67 398.798 1289.77C396.718 1289.56 394.639 1289.36 392.559 1289.15C386.489 1288.55 380.447 1287.89 374.412 1287C374.412 1286.34 374.412 1285.68 374.412 1285C375.624 1284.6 376.836 1284.2 378.084 1283.79C406.742 1274.13 430.561 1260.93 452.412 1240C452.911 1239.53 453.41 1239.06 453.924 1238.57C465.436 1227.65 474.984 1215.45 483.412 1202C483.792 1201.4 484.172 1200.8 484.563 1200.18C494.781 1183.89 502.95 1166.46 508.412 1148Z" fill="#F1D773"/>
<path d="M508.412 1233C509.072 1233 509.732 1233 510.412 1233C511.568 1234.73 511.568 1234.73 512.912 1237.19C524.427 1256.98 541.202 1274.83 559.346 1288.59C561.914 1290.61 564.136 1292.67 566.412 1295C547.394 1297.23 528.567 1298.65 509.412 1299C508.568 1299.02 507.724 1299.03 506.854 1299.05C496.03 1299.24 496.03 1299.24 491.168 1298.52C487.55 1298.02 483.987 1297.72 480.342 1297.5C479.033 1297.42 477.725 1297.34 476.377 1297.25C474.325 1297.12 472.274 1297 470.222 1296.88C468.22 1296.75 466.218 1296.63 464.217 1296.5C463.031 1296.43 461.845 1296.36 460.623 1296.28C457.811 1296.03 455.162 1295.62 452.412 1295C455.438 1291.77 458.621 1288.99 462.1 1286.25C473.462 1277.27 483.699 1267.57 492.412 1256C493.22 1254.97 494.029 1253.95 494.861 1252.89C499.461 1247.05 503.674 1241.28 507.256 1234.73C507.828 1233.87 507.828 1233.87 508.412 1233Z" fill="#F1D774"/>
<path d="M590.6 1683.62C594.465 1686.89 596.813 1690.2 598.412 1695C598.794 1699.66 598.891 1702.04 596.787 1706.25C591.246 1712.67 585.201 1714.17 577.162 1716C575.511 1716.38 575.511 1716.38 573.827 1716.77C552.06 1721.64 531.747 1723.45 509.412 1723C509.412 1712.44 509.412 1701.88 509.412 1691C504.792 1691 500.172 1691 495.412 1691C495.412 1690.67 495.412 1690.34 495.412 1690C496.273 1689.99 496.273 1689.99 497.151 1689.98C503.221 1689.92 509.289 1689.83 515.358 1689.74C517.612 1689.7 519.866 1689.68 522.119 1689.65C539.561 1689.47 555.763 1687.77 572.713 1683.65C584.902 1680.72 584.902 1680.72 590.6 1683.62Z" fill="#DDAF4C"/>
<path d="M446.35 1462.77C448.038 1463.11 449.726 1463.46 451.412 1463.81C470.562 1467.55 489.936 1469.22 509.412 1470C509.412 1480.56 509.412 1491.12 509.412 1502C486.656 1502.56 464.832 1500.14 442.537 1495.56C441.623 1495.38 440.709 1495.2 439.767 1495.01C432.989 1493.52 427.229 1490.99 422.412 1485.88C420.79 1481.21 420.556 1476.86 421.412 1472C427.01 1461.09 435.18 1460.76 446.35 1462.77Z" fill="#F2D774"/>
<path d="M453.412 1739C461.252 1739 461.252 1739 464.451 1739.59C465.549 1739.77 465.549 1739.77 466.669 1739.97C467.45 1740.1 468.232 1740.24 469.037 1740.38C482.422 1742.56 495.884 1743.17 509.412 1744C509.412 1757.2 509.412 1770.4 509.412 1784C490.932 1784 472.452 1784 453.412 1784C453.412 1769.15 453.412 1754.3 453.412 1739Z" fill="#F2D876"/>
<path d="M833.412 1080C836.565 1082.51 839.701 1085.01 842.412 1088C842.412 1088.66 842.412 1089.32 842.412 1090C837.302 1090.39 834.425 1089.27 829.975 1086.81C822.694 1082.94 815.306 1080.37 807.412 1078C806.211 1077.64 805.01 1077.27 803.772 1076.9C800.98 1076.15 798.466 1075.67 795.6 1075.44C791.615 1075.1 791.615 1075.1 789.412 1074C780.906 1073.58 772.609 1073.49 764.412 1076C763.246 1076.32 762.079 1076.64 760.877 1076.96C740.302 1082.77 723.617 1093.75 708.233 1108.45C706.412 1110 706.412 1110 704.412 1110C704.167 1110.55 703.922 1111.1 703.67 1111.67C702.155 1114.48 700.301 1116.78 698.287 1119.25C697.563 1120.14 696.838 1121.03 696.092 1121.95C695.538 1122.63 694.983 1123.3 694.412 1124C693.18 1120.3 694.098 1118.99 695.761 1115.61C696.12 1114.91 696.48 1114.22 696.85 1113.5C697.403 1112.42 697.403 1112.42 697.968 1111.32C710.28 1087.88 732.044 1069.54 757.322 1061.47C784.354 1055.36 811.555 1063.89 833.412 1080Z" fill="#F1D674"/>
<path d="M508.412 1233C509.072 1233 509.732 1233 510.412 1233C511.568 1234.73 511.568 1234.73 512.912 1237.19C524.427 1256.98 541.202 1274.83 559.346 1288.59C561.914 1290.61 564.136 1292.67 566.412 1295C562.165 1295.53 557.914 1296.02 553.662 1296.5C552.514 1296.64 551.365 1296.79 550.182 1296.93C536.625 1298.44 523.034 1298.14 509.412 1298C509.402 1297.24 509.391 1296.48 509.381 1295.7C509.283 1288.55 509.18 1281.39 509.073 1274.24C509.018 1270.57 508.964 1266.89 508.915 1263.21C508.867 1259.67 508.815 1256.12 508.759 1252.57C508.739 1251.22 508.72 1249.86 508.703 1248.51C508.679 1246.61 508.648 1244.72 508.617 1242.83C508.602 1241.75 508.586 1240.67 508.57 1239.56C508.58 1237.01 508.58 1237.01 507.412 1235C507.742 1234.34 508.072 1233.68 508.412 1233Z" fill="#DDB14D"/>
<path d="M983.412 1059C981.412 1061 981.412 1061 979.562 1061.28C973.837 1061.26 968.927 1060.32 963.475 1058.62C952.073 1055.18 941.653 1053.67 929.736 1053.74C927.482 1053.75 925.23 1053.74 922.977 1053.73C912.987 1053.72 903.515 1054.44 893.975 1057.62C890.752 1058.7 888.929 1059 885.412 1059C885.412 1059.66 885.412 1060.32 885.412 1061C884.806 1061.22 884.2 1061.44 883.576 1061.66C874.321 1065.17 866.344 1070.14 858.412 1076C854.12 1074.35 851.533 1071.26 848.412 1068C852.57 1057.88 869.348 1051.53 879.029 1047.49C914.799 1034.22 951.373 1038.69 983.412 1059Z" fill="#F2D879"/>
<path d="M502.772 686.234C505.984 688.603 508.184 690.658 510.412 694C511.089 699.385 511.352 705.085 508.787 710C505.227 714.497 500.936 717.422 495.412 719C489.232 719.608 484.403 718.92 479.412 715C475.849 710.566 474.735 705.715 475.033 700.098C476.071 694.354 480.43 690.837 484.631 687.199C489.597 683.856 497.531 683.493 502.772 686.234Z" fill="#DB5957"/>
<path d="M331.912 741.875C333.016 741.872 334.119 741.87 335.256 741.867C338.107 741.987 340.632 742.409 343.412 743C345.745 743.038 348.079 743.046 350.412 743C350.082 743.66 349.752 744.32 349.412 745C346.079 745.029 342.746 745.047 339.412 745.062C338.478 745.071 337.543 745.079 336.58 745.088C331.089 745.107 325.843 744.813 320.412 744C320.412 743.67 320.412 743.34 320.412 743C324.301 742.086 327.921 741.866 331.912 741.875Z" fill="#FEFAE3"/>
<path d="M154.412 642C155.732 642.66 157.052 643.32 158.412 644C157.422 645.98 156.432 647.96 155.412 650C154.092 649.01 152.772 648.02 151.412 647C152.402 645.35 153.392 643.7 154.412 642Z" fill="#A0751E"/>
</svg>
